<?xml version="1.0" standalone="no"?>
<!DOCTYPE svg PUBLIC "-//W3C//DTD SVG 1.1//EN" "http://www.w3.org/Graphics/SVG/1.1/DTD/svg11.dtd" >
<svg xmlns="http://www.w3.org/2000/svg">
<metadata>Generated by IcoMoon</metadata>
<defs>
<font id="gevicoins" horiz-adv-x="1024">
<font-face units-per-em="1024" ascent="960" descent="-64" />
<missing-glyph horiz-adv-x="1024" />
<glyph unicode="&#x20;" horiz-adv-x="512" d="" />
<glyph unicode="&#xe900;" glyph-name="acuerdo-manos" horiz-adv-x="1023" d="M457.974 768.020h160.154l175.718 176.169c9.661 9.79 23.076 15.854 37.908 15.854s28.248-6.064 37.903-15.848l0.006-0.006 137.748-138.281c9.63-9.635 15.586-22.943 15.586-37.642s-5.956-28.007-15.586-37.642v0l-122.266-122.88h-427.172v-106.783c0-29.487-23.904-53.391-53.391-53.391s-53.391 23.904-53.391 53.391v0 160.195c0 0.024 0 0.053 0 0.082 0 58.974 47.808 106.783 106.783 106.783v0zM137.667 501.084v-213.524l-122.061-122.225c-9.63-9.635-15.586-22.943-15.586-37.642s5.956-28.007 15.586-37.642v0l137.748-138.281c9.661-9.79 23.076-15.854 37.908-15.854s28.248 6.064 37.903 15.848l0.006 0.006 228.803 229.048h213.524c29.408 0 53.248 23.84 53.248 53.248v0 53.248h53.248c29.408 0 53.248 23.84 53.248 53.248v0 53.248h53.248c29.408 0 53.248 23.84 53.248 53.248v0 53.248h-372.9v-53.248c-0.395-58.674-48.051-106.086-106.78-106.086-0.030 0-0.059 0-0.089 0h-106.491c-0.037 0-0.080 0-0.123 0-58.96 0-106.759 47.785-106.783 106.74v160.197z" />
<glyph unicode="&#xe901;" glyph-name="agregar-clasif-admin" horiz-adv-x="1311" d="M438.63 814.029v-2.509c0-20.642-16.734-37.376-37.376-37.376h-142.899v-407.347h142.848c20.642 0 37.376-16.734 37.376-37.376v0-2.458c0-20.642-16.734-37.376-37.376-37.376h-192.614c-15.625 0.029-28.284 12.688-28.314 28.311v214.019h-142.899c-20.642 0-37.376 16.734-37.376 37.376v2.458c0 20.642 16.734 37.376 37.376 37.376v0h142.848v213.965c0.029 15.625 12.688 28.284 28.311 28.314h192.669c20.642 0 37.376-16.734 37.376-37.376v0zM546.611 665.549h309.043c28.475 0 51.558 23.083 51.558 51.558v0 191.334c0 28.475-23.083 51.558-51.558 51.558v0h-308.941c-28.453-0.029-51.507-23.101-51.507-51.558v0-191.488c0-0.015 0-0.033 0-0.051 0-28.429 23.031-51.478 51.453-51.507h0.003zM593.715 275.149v106.291c0 15.072 12.218 27.29 27.29 27.29h173.107c15.185 0 27.494 12.31 27.494 27.494v0 11.776c0 15.185-12.31 27.494-27.494 27.494h-247.398c-0.015 0-0.033 0-0.051 0-28.429 0-51.478-23.031-51.507-51.453v-191.389c0-0.015 0-0.033 0-0.051 0-28.429 23.031-51.478 51.453-51.507h4.713c23.385 0 42.342 18.957 42.342 42.342v0zM1284.045 320.614h-201.882v196.659c0 15.072-12.218 27.29-27.29 27.29v0h-115.354c-15.072 0-27.29-12.218-27.29-27.29v0-196.659h-200.55c-15.072 0-27.29-12.218-27.29-27.29v0-106.138c0-15.072 12.218-27.29 27.29-27.29v0h200.602v-196.659c0.029-15.032 12.207-27.209 27.236-27.238h115.203c15.072 0 27.29 12.218 27.29 27.29v0 196.659h201.933c15.072 0 27.29 12.218 27.29 27.29v0 106.138c0 15.072-12.218 27.29-27.29 27.29v0z" />
<glyph unicode="&#xe902;" glyph-name="agregar-registro" horiz-adv-x="826" d="M193.331 357.888c-11.741 0-21.258-9.518-21.258-21.258v-34.775c0.039-15.227 11.453-27.776 26.192-29.599l0.145-0.015c9.762 30.159 37.544 51.608 70.354 51.732h118.348v12.657c0 11.741-9.518 21.258-21.258 21.258v0zM430.080 481.3c0 0.021 0 0.046 0 0.070 0 18.665 6.991 35.698 18.496 48.623l-0.064-0.073h-276.48v-71.434c0-8.053 6.528-14.582 14.582-14.582v0h243.466zM509.501-64c-20.021 0.070-36.226 16.304-36.25 36.329v193.784h-198.82c0 0 0 0 0 0-20.022 0-36.261 16.196-36.331 36.202v48.463c0 15.224 12.342 27.566 27.566 27.566v0h207.626v195.052c0.046 19.995 16.22 36.198 36.2 36.291h53.503c15.202 0 27.525-12.323 27.525-27.525v0-203.817h198.779c20.027-0.023 36.262-16.229 36.332-36.243v-48.422c0-15.202-12.323-27.525-27.525-27.525h-207.667v-202.506c0-15.247-12.36-27.607-27.607-27.607v0zM687.677 702.484l-256.942 256.942-1.393 0.573h-343.327c-47.44-0.162-85.854-38.576-86.016-86v-688.144c0.162-47.44 38.576-85.854 86-86.016h126.541c5.655 0 10.24 4.585 10.24 10.24v0 42.557c-2.089 1.679-4.096 3.441-6.021 5.325-7.261 7.245-13.013 15.999-16.747 25.752l-0.169 0.504-2.089 1.638h-109.814c-1.046 0.023-1.885 0.876-1.885 1.925 0 0.015 0 0.029 0 0.044v-0.002 684.196c0 0 0 0 0 0 0 1.071 0.857 1.943 1.923 1.966h297.044c0.012 0 0.027 0 0.041 0 1.063 0 1.925-0.862 1.925-1.925 0-0.015 0-0.029 0-0.044v0.002-211.026c0-0.012 0-0.027 0-0.041 0-1.063 0.862-1.925 1.925-1.925 0.015 0 0.029 0 0.044 0h211.147c0.024 0.001 0.053 0.002 0.082 0.002 1.063 0 1.925-0.862 1.925-1.925 0-0.001 0-0.001 0-0.002v0-124.109l0.532-1.27c12.374-13.111 19.982-30.836 19.988-50.339v-4.711h49.398c0.012 0 0.027 0 0.041 0 8.89 0 16.097 7.207 16.097 16.097 0 0.014 0 0.029 0 0.043v-0.002 208.282l-0.573 1.393z" />
<glyph unicode="&#xe903;" glyph-name="alarma-check" horiz-adv-x="1017" d="M434.176 315.822l-108.257 108.298-53.903-53.903 161.669-161.669 305.070 305.070-53.903 53.862-250.675-251.658zM508.396 37.704c-0.012 0-0.027 0-0.041 0-196.559 0-355.901 159.343-355.901 355.901s159.343 355.901 355.901 355.901c196.559 0 355.901-159.343 355.901-355.901v0c0-196.559-159.343-355.901-355.901-355.901v0zM508.355 851.21c-252.693-0.047-457.523-204.906-457.523-457.605 0-252.728 204.877-457.605 457.605-457.605s457.605 204.877 457.605 457.605v0c0 252.728-204.877 457.605-457.605 457.605v0zM299.008 882.217l-65.126 77.783-233.882-195.748 65.536-77.824 233.472 195.789zM1016.873 763.761l-233.882 196.239-65.536-77.824 233.882-196.239z" />
<glyph unicode="&#xe904;" glyph-name="alineacion-a-flecha" horiz-adv-x="829" d="M243.17 97.458h-63.117v701.002h63.117c12.991 0.021 23.514 10.557 23.514 23.551 0 6.291-2.466 12.005-6.485 16.229l0.009-0.010-109.154 114.479c-4.283 4.492-10.313 7.285-16.996 7.285-6.317 0-12.051-2.496-16.27-6.555l0.008 0.007-0.696-0.737-110.588-114.397c-4.089-4.225-6.609-9.989-6.609-16.342 0-12.984 10.526-23.51 23.51-23.51 0.005 0 0.010 0 0.015 0h63.116v-701.002h-63.117c-0.017 0-0.038 0-0.059 0-12.984 0-23.51-10.526-23.51-23.51 0-6.313 2.488-12.045 6.538-16.269l109.105-114.47c4.283-4.492 10.313-7.285 16.996-7.285 6.317 0 12.051 2.496 16.27 6.555l-0.008-0.007 0.696 0.737 110.588 114.479c4.075 4.216 6.585 9.965 6.585 16.301 0 12.962-10.507 23.469-23.469 23.469-0.011 0-0.022 0-0.034 0h0.002zM825.721 230.491l-203.891 460.29c-6.993 15.625-22.397 26.319-40.301 26.336h-90.889c-17.906-0.018-33.31-10.711-40.191-26.057l-0.112-0.279-203.276-460.29c-1.749-3.863-2.768-8.377-2.768-13.128 0-13.211 7.877-24.582 19.191-29.672l0.205-0.083c3.846-1.72 8.331-2.741 13.049-2.785h81.933c13.593 0.009 25.227 8.388 30.027 20.262l0.078 0.217 33.627 83.105h225.271l33.627-83.105c4.878-12.091 16.511-20.47 30.103-20.479h85.154c17.939 0.028 32.471 14.578 32.471 32.521 0 4.759-1.022 9.279-2.859 13.353l0.083-0.205zM466.761 399.198l68.441 170.387 68.441-170.387z" />
<glyph unicode="&#xe905;" glyph-name="aos-periodo" horiz-adv-x="1443" d="M1402.061 960h-1360.896c-23.364-3.132-41.194-22.94-41.194-46.912 0-1.654 0.085-3.289 0.251-4.9l-0.017 0.202v-920.781c-0.149-1.409-0.234-3.043-0.234-4.698 0-23.972 17.829-43.78 40.951-46.885l0.243-0.027h1360.896c23.364 3.132 41.194 22.94 41.194 46.912 0 1.654-0.085 3.289-0.251 4.9l0.017-0.202v920.781c0.149 1.409 0.234 3.043 0.234 4.698 0 23.972-17.829 43.78-40.951 46.885l-0.243 0.027zM1356.308 32.338h-1276.15v831.488h1276.109zM216.228 302.674h164.168c13.573 0 24.576 11.003 24.576 24.576v0 4.096c0 13.573-11.003 24.576-24.576 24.576v0h-76.063c-0.029 0-0.064-0.001-0.098-0.001-4.524 0-8.192 3.668-8.192 8.192 0 2.378 1.014 4.52 2.632 6.017l0.005 0.005 49.889 47.104c14.987 12.858 27.503 28.077 37.088 45.161l0.432 0.837c6.101 12.432 9.669 27.056 9.669 42.514 0 0.231-0.001 0.462-0.002 0.693v-0.036c0.013 0.519 0.020 1.131 0.020 1.745 0 15.86-4.909 30.573-13.292 42.702l0.164-0.251c-9.288 12.818-21.774 22.788-36.303 28.834l-0.561 0.207c-15.405 6.522-33.318 10.312-52.116 10.312-1.032 0-2.061-0.011-3.087-0.034l0.153 0.003c-0.859 0.017-1.872 0.027-2.888 0.027-23.097 0-44.992-5.143-64.604-14.347l0.932 0.393c-9.040-4.329-16.826-9.258-23.956-14.973l0.24 0.186c-5.359-4.538-8.738-11.27-8.738-18.792 0-8.65 4.468-16.255 11.223-20.635l0.096-0.058 5.898-3.809c3.787-2.589 8.466-4.135 13.506-4.135 5.766 0 11.060 2.023 15.211 5.398l-0.044-0.035c3.977 3.385 8.487 6.336 13.345 8.683l0.376 0.164c9.461 4.455 20.549 7.055 32.245 7.055 0.443 0 0.886-0.004 1.327-0.011l-0.066 0.001c1.112 0.083 2.409 0.13 3.717 0.13 11.185 0 21.564-3.448 30.133-9.34l-0.18 0.117c7.076-5.768 11.56-14.484 11.56-24.248 0-0.62-0.018-1.235-0.054-1.846l0.004 0.084c-0.122-8.654-2.352-16.762-6.197-23.866l0.135 0.273c-6.467-10.965-14.236-20.338-23.265-28.319l-0.123-0.107-101.212-95.56c-4.746-4.49-7.701-10.833-7.701-17.866 0-0.012 0-0.023 0-0.035v0.002-7.127c0-13.573 11.003-24.576 24.576-24.576v0zM489.8 315.044c17.844-10.891 39.432-17.339 62.525-17.339s44.682 6.448 63.061 17.642l-0.536-0.303c18.773 12.298 33.504 29.358 42.67 49.488l0.297 0.729c9.82 23.191 15.527 50.158 15.527 78.459s-5.707 55.268-16.033 79.814l0.506-1.355c-9.469 20.855-24.199 37.914-42.525 49.945l-0.442 0.272c-17.844 10.891-39.432 17.339-62.525 17.339s-44.682-6.448-63.061-17.642l0.536 0.303c-18.771-12.299-33.502-29.359-42.67-49.488l-0.297-0.729c-9.82-23.191-15.527-50.158-15.527-78.459s5.707-55.268 16.033-79.814l-0.506 1.355c9.459-20.861 24.191-37.923 42.525-49.945l0.442-0.272zM512.205 512.307c8.605 13.429 23.451 22.202 40.346 22.202s31.741-8.773 40.231-22.011l0.114-0.19c9.295-20.157 14.715-43.739 14.715-68.588s-5.421-48.431-15.144-69.629l0.428 1.042c-8.605-13.429-23.451-22.202-40.346-22.202s-31.741 8.773-40.231 22.011l-0.114 0.19c-9.302 20.156-14.727 43.738-14.727 68.588s5.425 48.432 15.155 69.628l-0.428-1.040zM724.5 302.551h13.722c0.052 0 0.113-0.001 0.174-0.001 8.402 0 15.82 4.217 20.252 10.649l0.054 0.083 56.812 83.149c0.638 0.9 1.676 1.481 2.849 1.481 0.742 0 1.43-0.232 1.995-0.628l-0.011 0.007c0.337-0.238 0.622-0.523 0.853-0.849l0.007-0.011 57.958-83.354c4.497-6.421 11.86-10.568 20.193-10.568 0 0 0 0 0.001 0h14.5c0.013 0 0.029 0 0.045 0 13.573 0 24.576 11.003 24.576 24.576 0 5.417-1.753 10.425-4.722 14.487l0.048-0.069-76.022 105.062c-0.416 0.567-0.666 1.278-0.666 2.048s0.25 1.481 0.673 2.058l-0.007-0.010 68.813 95.314c2.921 3.993 4.674 9.001 4.674 14.418 0 13.573-11.003 24.576-24.576 24.576-0.016 0-0.032 0-0.048 0h-9.665c0 0 0 0-0.001 0-8.332 0-15.696-4.147-20.14-10.489l-0.052-0.079-53.576-77.005c-0.64-0.88-1.666-1.446-2.824-1.446-0.771 0-1.483 0.25-2.060 0.674l0.010-0.007c-0.301 0.22-0.558 0.477-0.771 0.768l-0.007 0.010-54.6 77.251c-4.509 6.303-11.805 10.363-20.049 10.363-0.007 0-0.015 0-0.022 0h-13.679c-0.020 0-0.044 0-0.068 0-13.573 0-24.576-11.003-24.576-24.576 0-5.382 1.73-10.359 4.664-14.407l-0.049 0.071 69.96-97.812c0.416-0.567 0.666-1.278 0.666-2.048s-0.25-1.481-0.673-2.058l0.007 0.010-74.588-102.4c-2.957-4.009-4.733-9.047-4.733-14.5 0-13.573 11.003-24.576 24.576-24.576 0.022 0 0.045 0 0.067 0h-0.004zM1012.204 302.715h15.319c13.573 0 24.576 11.003 24.576 24.576v0 0 130.253c0.002 3.279 2.66 5.935 5.939 5.935 1.843 0 3.49-0.84 4.58-2.157l0.008-0.010 122.88-149.627c4.541-5.495 11.357-8.97 18.985-8.97 0.007 0 0.014 0 0.021 0h17.407c13.573 0 24.576 11.003 24.576 24.576v0 0 232.94c0 13.573-11.003 24.576-24.576 24.576v0h-15.278c-13.573 0-24.576-11.003-24.576-24.576v0-130.212c-0.002-3.279-2.66-5.935-5.939-5.935-1.843 0-3.49 0.84-4.58 2.157l-0.008 0.010-122.47 149.586c-4.541 5.519-11.372 9.011-19.019 9.011-0.010 0-0.019 0-0.029 0h-17.816c-13.573 0-24.576-11.003-24.576-24.576v0-233.185c0-13.573 11.003-24.576 24.576-24.576v0z" />
<glyph unicode="&#xe906;" glyph-name="arbol-relacion" d="M512 396.8h-256v-256h256v-102.4h-358.4v512h102.4v-51.2h256v-102.4zM307.2 857.6v-102.4h-204.8v102.4h204.8zM409.6 960h-409.6v-307.2h409.6v307.2zM921.6 499.2v-102.4h-204.8v102.4h204.8zM1024 601.6h-409.6v-307.2h409.6v307.2zM921.6 140.8v-102.4h-204.8v102.4h204.8zM1024 243.2h-409.6v-307.2h409.6z" />
<glyph unicode="&#xe907;" glyph-name="archivos-empleado" horiz-adv-x="765" d="M478.232 959.949h-383.456c-0.711 0.020-1.549 0.031-2.388 0.031-50.284 0-91.21-40.069-92.589-90.020l-0.003-0.128v-721.034c1.628-50.077 42.615-90.054 92.938-90.054 0.952 0 1.902 0.014 2.847 0.043l-0.139-0.003h574.083c0.717-0.020 1.561-0.031 2.408-0.031 50.418 0 91.494 39.995 93.234 89.989l0.004 0.159v540.75zM286.734 509.366c47.538-2.893 84.996-42.154 84.996-90.164 0-49.883-40.438-90.321-90.321-90.321s-90.319 40.436-90.321 90.317v0c1.716 50.175 42.804 90.199 93.24 90.199 0.846 0 1.69-0.011 2.531-0.034l-0.124 0.003zM478.232 148.798h-382.586v45.058c0 59.958 127.699 90.117 191.293 90.117s191.293-30.21 191.293-90.117zM430.409 644.541v247.872l263.079-247.872zM733.784 9.22h-702.397c-0.205 0.005-0.446 0.008-0.688 0.008-16.556 0-30.053-13.095-30.697-29.493l-0.002-0.059v-14.132c0.647-16.456 14.144-29.552 30.699-29.552 0.242 0 0.483 0.003 0.724 0.008l-0.036-0.001h702.397c0.205-0.005 0.446-0.008 0.688-0.008 16.556 0 30.053 13.095 30.697 29.493l0.002 0.059v14.132c-0.647 16.456-14.144 29.552-30.699 29.552-0.242 0-0.483-0.003-0.724-0.008l0.036 0.001z" />
<glyph unicode="&#xe908;" glyph-name="autorizar-lotes" horiz-adv-x="987" d="M403.513 386.537v-23.635c0-15.021 12.177-27.199 27.199-27.199v0h28.673v51.284c0.001 9.886 2.822 19.113 7.703 26.921l-0.125-0.214h-36.374c-15.021 0-27.199-12.177-27.199-27.199v0zM403.595 569.758v-56.896c0-11.673 9.463-21.136 21.136-21.136h229.098l61.442 61.442c-2.117 9.531-10.468 16.564-20.473 16.63h-0.007zM448.366 257.59h-122.762v624.583h273.173v-195.346h195.1v-77.827c13.617-0.256 25.886-5.823 34.863-14.709l22.688-22.443c9.136-9.201 16.169-20.502 20.311-33.115l0.17-0.597v187.727l-234.096 234.137h-312.21c-42.977-0.116-77.8-34.866-78.032-77.805v-624.605c0.232-42.961 35.055-77.712 78.021-77.827h122.691c6.311 0.023 11.423 5.121 11.469 11.424v54.975c0 6.334-5.135 11.469-11.469 11.469v0zM583.908 382.441h-48.867c-10.157 0-18.392-8.234-18.392-18.392v0-219.841c0-10.157 8.234-18.392 18.392-18.392v0h48.785c10.157 0 18.392 8.234 18.392 18.392v0 219.964c0 10.157-8.234 18.392-18.392 18.392v0zM944.616 403.823h-135.173l20.481 97.775c0.417 2.023 0.656 4.348 0.656 6.729 0 0.039 0 0.079 0 0.118v-0.006c-0.004 8.865-3.604 16.889-9.421 22.692l-0.001 0.001-8.93 8.848c-3.513 3.509-8.364 5.68-13.722 5.68s-10.209-2.17-13.722-5.68v0l-126.981-126.981c-7.792-7.71-12.617-18.405-12.617-30.227 0-0.058 0-0.117 0-0.175v0.009-209.928c0-25.858 20.962-46.819 46.819-46.819v0h188.424c0.044 0 0.095 0 0.147 0 17.553 0 32.621 10.636 39.112 25.815l0.105 0.277 64.597 150.821c1.887 4.622 2.985 9.985 2.99 15.604v42.643c0 0.024 0 0.053 0 0.082 0 23.595-19.128 42.723-42.723 42.723 0 0 0 0 0 0v0zM393.027 95.709h-218.407v728.339c-0.223 5.864-5.031 10.534-10.929 10.534-0.132 0-0.264-0.002-0.395-0.007l0.019 0.001h-30.475c-0.112 0.004-0.244 0.006-0.376 0.006-5.898 0-10.706-4.669-10.929-10.513l-0.001-0.020v-755.865c0.445-12.092 10.355-21.725 22.515-21.725 0.293 0 0.585 0.006 0.875 0.017l-0.042-0.001h248.146c0.090-0.003 0.195-0.005 0.3-0.005 4.625 0 8.405 3.615 8.669 8.174l0.001 0.023v32.769c-0.265 4.582-4.045 8.198-8.67 8.198-0.106 0-0.211-0.002-0.316-0.006h0.015zM271.494-14.641h-218.244v728.339c-0.223 5.864-5.031 10.534-10.929 10.534-0.132 0-0.264-0.002-0.395-0.007l0.019 0.001h-30.639c-0.112 0.004-0.244 0.006-0.376 0.006-5.898 0-10.706-4.669-10.929-10.513l-0.001-0.020v-755.988c0.445-12.092 10.355-21.725 22.515-21.725 0.293 0 0.585 0.006 0.875 0.017l-0.042-0.001h248.146c0.090-0.003 0.195-0.005 0.3-0.005 4.625 0 8.405 3.615 8.669 8.174l0.001 0.023v32.728c-0.265 4.582-4.045 8.198-8.67 8.198-0.106 0-0.211-0.002-0.316-0.006h0.015z" />
<glyph unicode="&#xe909;" glyph-name="autorizar-registro" horiz-adv-x="908" d="M191.546 256.272v-29.231c0-18.425 14.937-33.362 33.362-33.362v0h35.45v63.183c-0.001 0.109-0.001 0.238-0.001 0.368 0 11.98 3.378 23.172 9.234 32.673l-0.154-0.269h-44.528c-18.425 0-33.362-14.937-33.362-33.362v0zM191.546 481.18v-69.81c0-14.339 11.624-25.963 25.963-25.963v0h281.101l75.393 75.393c-2.634 11.74-12.967 20.38-25.319 20.38-0.003 0-0.006 0-0.009 0v0zM95.773 864.227h335.16v-239.296h239.433v-95.319c16.716-0.359 31.761-7.226 42.76-18.159l-0.003 0.003 27.824-27.552c11.251-11.285 19.905-25.166 24.985-40.667l0.207-0.729v230.309l-287.319 287.274h-383.047c-52.864-0.155-95.67-42.993-95.773-95.854v-766.104c0.077-52.881 42.899-95.735 95.761-95.864h164.551v95.773h-164.539zM412.687 251.461h-59.87c-12.534 0-22.695-10.161-22.695-22.695v0-269.889c0-12.534 10.161-22.695 22.695-22.695v0h59.87c12.534 0 22.695 10.161 22.695 22.695v0 270.026c0 12.534-10.161 22.695-22.695 22.695v0zM855.285 277.515h-165.901l25.191 119.966c0.491 2.453 0.772 5.273 0.772 8.159 0 0.084 0 0.168-0.001 0.251v-0.013c-0.018 10.864-4.419 20.696-11.53 27.825l0.001-0.001-10.984 10.848c-4.309 4.293-10.253 6.946-16.817 6.946s-12.508-2.654-16.818-6.947l-155.959-155.959c-9.561-9.499-15.478-22.655-15.478-37.193 0-0.025 0-0.051 0-0.076v0.004-257.589c0-31.711 25.707-57.418 57.418-57.418v0h231.489c0.061 0 0.132 0 0.204 0 21.538 0 40.023 13.067 47.962 31.705l0.129 0.341 79.296 185.055c2.241 5.595 3.541 12.082 3.541 18.871 0 0.036 0 0.072 0 0.107v-0.006 52.652c-0.129 28.906-23.592 52.29-52.516 52.29-0.048 0-0.096 0-0.144 0h0.007z" />
<glyph unicode="&#xe90a;" glyph-name="balanza" horiz-adv-x="1085" d="M0 468.849l84.623 216.023q33.219 85.033 66.273 170.066c3.292 14.891 16.381 25.865 32.033 25.865 1.953 0 3.866-0.171 5.725-0.498l-0.197 0.029h189.481c0.446-0.038 0.966-0.059 1.491-0.059 6.329 0 11.929 3.121 15.346 7.907l0.039 0.057c34.518 43.861 87.604 71.768 147.209 71.768 59.256 0 112.071-27.582 146.304-70.609l0.293-0.381c3.834-5.345 10.028-8.787 17.026-8.787 0.567 0 1.128 0.023 1.684 0.067l-0.073-0.005c62.095 0.287 124.232 0 186.286 0 24.576 0 31.498-4.628 40.387-27.361q71.885-183.706 143.852-367.534c4.439-12.859 7.002-27.677 7.002-43.095 0-16.129-2.805-31.603-7.955-45.96l0.297 0.95c-22.653-76.914-92.621-132.101-175.478-132.101-87.915 0-161.319 62.131-178.699 144.879l-0.209 1.189c-2.008 8.848-3.159 19.010-3.159 29.44 0 18.441 3.597 36.042 10.128 52.139l-0.333-0.93c42.148 104.735 82.534 210.166 123.535 315.392 1.27 3.236 2.171 6.554 3.564 10.772h-132.465c3.336-13.252 5.251-28.466 5.251-44.127 0-88.188-60.705-162.197-142.607-182.52l-1.293-0.271q-6.062-1.475-12.288-2.54v-521.503h154.255c19.839 0 35.922-16.083 35.922-35.922v0-59.187c0-19.839-16.083-35.922-35.922-35.922v0h-371.016c-19.839 0-35.922 16.083-35.922 35.922v0 58.245c0 19.839 16.083 35.922 35.922 35.922v0h154.214v522.363c-89.122 15.92-155.897 92.835-155.897 185.348 0 11.403 1.015 22.57 2.958 33.414l-0.17-1.141q1.065 6.103 2.499 12.288h-132.137c1.516-4.465 2.662-8.192 4.096-12.001 40.346-103.219 79.872-206.807 121.528-309.207 6.873-16.433 10.866-35.528 10.866-55.556 0-16.245-2.627-31.876-7.479-46.493l0.3 1.041c-23.010-76.101-92.506-130.558-174.721-130.558-91.436 0-167.141 67.358-180.199 155.161l-0.122 0.997c-0.591 2.738-1.296 5.081-2.162 7.345l0.114-0.341zM999.424 516.936l-80.118 204.8c-2.692 6.777-9.194 11.482-16.794 11.482s-14.101-4.704-16.751-11.36l-0.043-0.122-79.913-204.8c-0.781-1.943-1.234-4.195-1.234-6.554 0-9.953 8.069-18.022 18.022-18.022 0.002 0 0.004 0 0.005 0h159.989c9.938 0.020 17.986 8.082 17.986 18.022 0 2.358-0.453 4.611-1.277 6.675l0.043-0.122zM165.315 721.736l-79.79-204.8c-0.781-1.943-1.234-4.195-1.234-6.554 0-9.953 8.069-18.022 18.022-18.022 0.002 0 0.004 0 0.005 0h159.744c0.001 0 0.003 0 0.005 0 9.953 0 18.022 8.069 18.022 18.022 0 2.358-0.453 4.611-1.277 6.675l0.043-0.122-79.954 204.8c-2.692 6.777-9.194 11.482-16.794 11.482s-14.101-4.704-16.751-11.36l-0.043-0.122zM523.305 667.259h37.97v21.709c2.621 1.27 4.915 2.294 7.127 3.441 18.653 9.595 31.191 28.712 31.191 50.757 0 15.602-6.28 29.737-16.451 40.015l0.005-0.005c-10.191 10.582-24.479 17.157-40.304 17.162h-0.001c-0.278-0.015-0.603-0.023-0.93-0.023-10.451 0-18.924 8.472-18.924 18.924 0 8.323 5.373 15.39 12.839 17.924l0.133 0.039c1.89 0.707 4.074 1.116 6.353 1.116 6.858 0 12.85-3.704 16.086-9.22l0.048-0.088c1.276-2.553 2.499-5.606 3.483-8.765l0.121-0.451h37.437v3.523c-1.376 21.456-14.643 39.508-33.23 47.741l-0.357 0.141c-2.678 0.769-4.604 3.196-4.604 6.073 0 0.299 0.021 0.594 0.061 0.882l-0.004-0.033c0.328 5.612 0 11.264 0 17.121h-38.052c0-5.898-0.287-11.223 0-16.384 0.063-0.35 0.099-0.754 0.099-1.165 0-3.203-2.175-5.898-5.129-6.688l-0.048-0.011c-19.769-9.141-33.238-28.803-33.238-51.611 0-12.818 4.254-24.643 11.428-34.139l-0.104 0.143c10.198-14.072 26.564-23.132 45.048-23.183h0.008c0.303 0.017 0.657 0.027 1.013 0.027 10.496 0 19.005-8.509 19.005-19.005s-8.509-19.005-19.005-19.005c-9.020 0-16.573 6.284-18.519 14.713l-0.025 0.128-0.819 4.096h-37.478c-0.044-0.613-0.069-1.327-0.069-2.048s0.025-1.435 0.074-2.144l-0.005 0.096c1.488-21.208 14.598-39.029 32.946-47.249l0.354-0.142c3.645-1.761 5.079-3.441 4.833-7.414-0.369-5.571 0-11.223 0-16.753z" />
<glyph unicode="&#xe90b;" glyph-name="balanza-momento" horiz-adv-x="1168" d="M533.053 94.761c-11.428-1.475-22.815-3.4-34.284-4.096-7.218-0.47-15.65-0.738-24.144-0.738-218.185 0-395.059 176.874-395.059 395.059s176.874 395.059 395.059 395.059c142.839 0 267.973-75.807 337.364-189.384l0.985-1.734c1.925-3.113 3.523-6.39 7.25-13.189l-84.255 30.188c-5.113 2.214-11.321 4.331-17.715 5.983l-0.922 0.202c-2.17 0.397-4.667 0.624-7.217 0.624-18.23 0-33.751-11.596-39.59-27.814l-0.092-0.293c-0.957-3.31-1.507-7.111-1.507-11.041 0-17.79 11.274-32.947 27.066-38.716l0.286-0.091c32.563-12.288 65.536-23.839 98.304-35.84q45.056-16.384 89.866-33.464c3.143-0.855 6.751-1.347 10.474-1.347 17.087 0 31.757 10.349 38.083 25.12l0.103 0.27c22.487 60.785 44.646 121.651 65.946 182.845 1.633 4.25 2.579 9.168 2.579 14.306 0 17.472-10.939 32.388-26.342 38.275l-0.281 0.094c-1.206 0.473-2.749 0.964-4.328 1.368l-0.301 0.065c-3.435 1.227-7.398 1.937-11.526 1.937-15.344 0-28.399-9.799-33.249-23.481l-0.076-0.247c0-0.492-0.328-1.024-0.492-1.556-10.199-25.518-19.988-51.2-30.024-76.8-1.761-4.506-3.768-8.929-4.71-11.141-20.808 28.467-40.1 59.31-63.775 86.303-71.077 82.069-170.417 137.996-282.735 152.582l-2.264 0.24c-21.656 3.598-46.61 5.654-72.044 5.654-112.039 0-214.761-39.894-294.736-106.251l0.761 0.614c-94.357-74.069-158.285-183.194-172.093-307.444l-0.185-2.050c-2.027-16.483-3.184-35.565-3.184-54.916 0-219.719 149.139-404.604 351.708-458.947l3.323-0.759c37.754-9.903 81.096-15.589 125.766-15.589 23.374 0 46.385 1.557 68.934 4.573l-2.638-0.289c17.299 4.056 29.983 19.354 29.983 37.613 0 21.31-17.275 38.584-38.584 38.584-1.907 0-3.782-0.138-5.615-0.406l0.209 0.025zM485.663 762.941c-0.804 21.173-18.162 38.033-39.459 38.033-20.488 0-37.332-15.604-39.294-35.577l-0.013-0.163q-0.451-141.844 0-283.689c-0.003-0.172-0.005-0.375-0.005-0.578 0-19.142 15.357-34.696 34.422-35.016h0.849q52.142-0.287 104.243-0.246c7.462 26.709 17.984 50.068 31.449 71.384l-0.647-1.096q2.826 4.547 5.775 8.806h-97.239v238.182zM1164.247 253.399q-41.779 106.127-83.108 212.46c-5.12 13.148-9.052 15.77-23.347 15.77h-107.684c-0.248-0.018-0.538-0.028-0.831-0.028-4.072 0-7.682 1.981-9.918 5.032l-0.024 0.034c-19.958 25.087-50.484 41.028-84.733 41.028-34.451 0-65.134-16.129-84.912-41.247l-0.175-0.231c-1.997-2.809-5.241-4.62-8.907-4.62-0.296 0-0.59 0.012-0.88 0.035l0.038-0.002h-109.527c-0.975 0.178-2.096 0.28-3.242 0.28-9.034 0-16.585-6.344-18.444-14.819l-0.023-0.125-38.298-98.304q-24.576-62.464-48.947-124.846v-23.265c0.443-1.132 0.852-2.503 1.155-3.913l0.033-0.183c7.552-51.398 51.345-90.41 104.249-90.41 47.535 0 87.713 31.494 100.808 74.755l0.194 0.746c2.658 7.886 4.192 16.969 4.192 26.409 0 11.58-2.308 22.621-6.489 32.687l0.208-0.565c-24.084 59.31-46.94 119.194-70.205 178.831-0.819 2.13-1.475 4.342-2.376 6.922h76.349c-1.939-7.682-3.051-16.501-3.051-25.579 0-50.981 35.081-93.769 82.42-105.54l0.748-0.157c2.335-0.573 4.669-1.065 7.045-1.475v-301.67h-89.211c-11.469 0-20.767-9.298-20.767-20.767v0-33.833c0-11.469 9.298-20.767 20.767-20.767v0h214.548c11.469 0 20.767 9.298 20.767 20.767v0 34.12c0 11.469-9.298 20.767-20.767 20.767v0h-89.293v301.629c51.594 9.095 90.288 53.579 90.288 107.101 0 6.501-0.571 12.868-1.665 19.055l0.096-0.655q-0.614 3.604-1.475 7.168h76.595c-0.778-2.417-1.352-4.342-2.048-6.226-23.716-60.826-47.063-121.733-71.434-182.313-3.587-8.774-5.669-18.956-5.669-29.625 0-6.018 0.663-11.882 1.919-17.522l-0.1 0.534c10.186-48.498 52.607-84.39 103.41-84.39 47.836 0 88.241 31.821 101.199 75.451l0.19 0.747c2.806 7.749 4.428 16.693 4.428 26.015 0 8.922-1.486 17.498-4.224 25.492l0.165-0.553zM702.382 271.995c0.457-1.129 0.722-2.438 0.722-3.809 0-5.746-4.658-10.404-10.404-10.404-0.009 0-0.018 0-0.028 0h-92.364c-0.003 0-0.007 0-0.010 0-5.746 0-10.404 4.658-10.404 10.404 0 1.356 0.259 2.651 0.731 3.839l-0.025-0.070 46.121 118.292c1.545 3.93 5.308 6.662 9.708 6.662s8.162-2.731 9.683-6.591l0.025-0.071 46.244-118.292zM1109.197 257.536h-92.529c-0.008 0-0.017 0-0.026 0-5.746 0-10.404 4.658-10.404 10.404 0 1.371 0.265 2.68 0.747 3.879l-0.025-0.070 46.203 118.456c1.545 3.93 5.308 6.662 9.708 6.662s8.162-2.731 9.683-6.591l0.025-0.071 46.326-118.456c0.457-1.129 0.722-2.438 0.722-3.809 0-5.746-4.658-10.404-10.404-10.404-0.009 0-0.018 0-0.028 0h0.001z" />
<glyph unicode="&#xe90c;" glyph-name="banco-numeros-registro" horiz-adv-x="751" d="M230.81 564.040h56.156v-131.072h-56.156zM193.372 395.53h355.779v-56.197h-355.779zM343.163 564.040h56.197v-131.072h-56.197zM455.475 564.040h56.197v-131.072h-56.197zM193.331 638.956v-37.478h355.779v37.478l-177.848 93.594zM321.987 960h107.315v-186.122h-107.315zM643.932 866.939h-160.973v-93.102h160.973v-744.571h-536.617v744.571h160.973v93.102h-160.973c-1.906 0.128-4.132 0.201-6.375 0.201-53.122 0-96.69-40.909-100.917-92.943l-0.024-0.36v-744.571c4.169-52.468 47.773-93.466 100.953-93.466 2.238 0 4.46 0.073 6.662 0.216l-0.3-0.016h536.576c1.907-0.128 4.134-0.201 6.378-0.201 53.108 0 96.666 40.887 100.914 92.9l0.024 0.362v744.776c-4.271 52.375-47.829 93.262-100.937 93.262-2.244 0-4.471-0.073-6.678-0.217l0.3 0.016zM221.184 116.224c-0.131-0.004-0.285-0.006-0.44-0.006-3.743 0-7.171 1.35-9.823 3.589l0.023-0.019c-2.949 2.896-4.838 6.862-5.037 11.268l-0.001 0.036-0.573 4.792h-25.395l0.614-5.98c0.594-10.781 5.704-20.26 13.454-26.655l0.063-0.051c7.162-5.527 16.264-8.859 26.145-8.859 0.356 0 0.71 0.004 1.064 0.013l-0.052-0.001c0.46-0.019 0.999-0.029 1.541-0.029 11.699 0 22.242 4.949 29.649 12.868l0.021 0.023c7.254 8.002 11.694 18.671 11.694 30.377 0 0.481-0.007 0.959-0.022 1.436l0.002-0.070c0.020 0.47 0.031 1.021 0.031 1.575 0 11.069-4.559 21.072-11.902 28.236l-0.008 0.008c-7.026 6.914-16.673 11.183-27.316 11.183-0.117 0-0.233-0.001-0.349-0.002h0.018c-0.125 0.001-0.272 0.002-0.419 0.002-4.931 0-9.659-0.871-14.037-2.469l0.285 0.091 1.229 15.401h47.186v23.88h-69.263l-5.53-68.813h19.374l1.393 1.925c3.782 4.472 9.396 7.292 15.669 7.292 0.079 0 0.157 0 0.236-0.001h-0.012c0.248 0.013 0.538 0.020 0.83 0.020 4.692 0 8.935-1.919 11.988-5.016l0.002-0.002c3.079-3.466 4.96-8.056 4.96-13.086 0-0.469-0.016-0.933-0.048-1.394l0.003 0.062c0.011-0.274 0.018-0.596 0.018-0.92 0-5.588-1.936-10.724-5.174-14.774l0.036 0.047c-2.746-3.51-6.982-5.745-11.74-5.745-0.193 0-0.385 0.004-0.576 0.011l0.028-0.001zM306.34 116.47c-0.131-0.004-0.285-0.006-0.44-0.006-3.743 0-7.171 1.35-9.823 3.589l0.023-0.019c-2.949 2.896-4.838 6.862-5.037 11.268l-0.001 0.036-0.246 4.669h-25.6l0.614-5.98c0.594-10.781 5.704-20.26 13.454-26.655l0.063-0.051c7.162-5.527 16.264-8.859 26.145-8.859 0.356 0 0.71 0.004 1.064 0.013l-0.052-0.001c0.46-0.019 0.999-0.029 1.541-0.029 11.699 0 22.242 4.949 29.649 12.868l0.021 0.023c7.254 8.002 11.694 18.671 11.694 30.377 0 0.481-0.007 0.959-0.022 1.436l0.002-0.070c0.020 0.475 0.032 1.032 0.032 1.592 0 11.064-4.56 21.062-11.902 28.219l-0.008 0.008c-7.026 6.914-16.673 11.183-27.316 11.183-0.117 0-0.233-0.001-0.349-0.002h0.018c-0.125 0.001-0.272 0.002-0.419 0.002-4.931 0-9.659-0.871-14.037-2.469l0.285 0.091 1.229 15.401h47.145v23.88h-69.222l-5.53-68.813h19.374l1.597 1.802c3.782 4.472 9.396 7.292 15.669 7.292 0.079 0 0.157 0 0.236-0.001h-0.012c0.248 0.013 0.538 0.020 0.83 0.020 4.692 0 8.935-1.919 11.988-5.016l0.002-0.002c3.079-3.466 4.96-8.056 4.96-13.086 0-0.469-0.016-0.933-0.048-1.394l0.003 0.062c0.011-0.274 0.018-0.596 0.018-0.92 0-5.588-1.936-10.724-5.174-14.774l0.036 0.047c-2.746-3.51-6.982-5.745-11.74-5.745-0.193 0-0.385 0.004-0.576 0.011l0.028-0.001zM358.932 153.62h52.060v-24.576h-52.060zM443.31 96.276l41.697 104.202v16.384h-81.92v-23.88h53.576l-40.96-96.748zM528.671 96.276l41.697 104.202v16.384h-81.92v-23.88h53.576l-40.96-96.748z" />
<glyph unicode="&#xe90d;" glyph-name="bancos" horiz-adv-x="926" d="M463.258 960l-463.258-243.794v-97.526h926.474v97.526zM682.68 521.155v-341.32h146.268v341.32zM0-64h926.474v146.268h-926.474zM390.103 521.114v-341.32h146.473v341.361zM97.608 179.835h146.063v341.32h-146.063z" />
<glyph unicode="&#xe90e;" glyph-name="calculadora" horiz-adv-x="857" d="M782.705 960h-707.912c-41.288-0.047-74.746-33.505-74.793-74.789v-874.418c0.047-41.288 33.505-74.746 74.789-74.793h707.916c41.288 0.047 74.746 33.505 74.793 74.789v874.418c-0.047 41.288-33.505 74.746-74.789 74.793h-0.004zM800.072 10.793c-0.023-9.582-7.785-17.344-17.365-17.367h-707.914c-9.582 0.023-17.344 7.785-17.367 17.365v874.416c0.023 9.582 7.785 17.344 17.365 17.367h707.914c9.582-0.023 17.344-7.785 17.367-17.365v-0.002zM301.875 159.109c0-30.697-24.885-55.583-55.583-55.583s-55.583 24.885-55.583 55.583c0 30.697 24.885 55.583 55.583 55.583v0c30.697 0 55.583-24.885 55.583-55.583v0zM303.759 331.756c-0.023-30.227-24.533-54.723-54.764-54.723-30.245 0-54.764 24.518-54.764 54.764 0 30.231 24.495 54.74 54.72 54.764h0.002c30.268 0 54.804-24.537 54.804-54.804v0zM192.389 503.214c0 30.494 24.72 55.214 55.214 55.214s55.214-24.72 55.214-55.214c0-30.494-24.72-55.214-55.214-55.214v0c-30.494 0-55.214 24.72-55.214 55.214v0zM487.301 159.15c0-30.697-24.885-55.583-55.583-55.583s-55.583 24.885-55.583 55.583c0 30.697 24.885 55.583 55.583 55.583v0c30.697 0 55.583-24.885 55.583-55.583v0zM486.482 331.796c0-30.268-24.537-54.804-54.804-54.804s-54.804 24.537-54.804 54.804c0 30.268 24.537 54.804 54.804 54.804v0c30.268 0 54.804-24.537 54.804-54.804v0zM486.892 503.255c0-30.494-24.72-55.214-55.214-55.214s-55.214 24.72-55.214 55.214c0 30.494 24.72 55.214 55.214 55.214v0c0.012 0 0.027 0 0.041 0 30.471 0 55.173-24.702 55.173-55.173 0-0.014 0-0.029 0-0.043v0.002zM672.563 159.191c0-30.697-24.885-55.583-55.583-55.583s-55.583 24.885-55.583 55.583c0 30.697 24.885 55.583 55.583 55.583v0c30.697 0 55.583-24.885 55.583-55.583v0zM559.514 331.837c0.023 30.227 24.533 54.723 54.764 54.723 30.245 0 54.764-24.518 54.764-54.764 0-30.231-24.495-54.74-54.72-54.764h-0.002c-0.012 0-0.027 0-0.041 0-30.245 0-54.764 24.518-54.764 54.764 0 0.014 0 0.029 0 0.043v-0.002zM560.456 503.296c0 30.494 24.72 55.214 55.214 55.214s55.214-24.72 55.214-55.214c0-30.494-24.72-55.214-55.214-55.214v0c-30.494 0-55.214 24.72-55.214 55.214v0zM700.744 803.287v-130.621c-0.070-18.59-15.121-33.641-33.703-33.71h-471.784c-18.59 0.070-33.641 15.121-33.71 33.703v130.628c0.070 18.59 15.121 33.641 33.703 33.71h471.62c18.59-0.070 33.641-15.121 33.71-33.703v-0.007z" />
<glyph unicode="&#xe90f;" glyph-name="calendario-cerrar" horiz-adv-x="973" d="M512-12.8c0.156-18.411 3.521-35.987 9.562-52.264l-0.346 1.064h-418.816c-56.554 0-102.4 45.846-102.4 102.4v0 716.8c0 0.11-0.001 0.239-0.001 0.369 0 56.35 45.681 102.031 102.031 102.031 0.13 0 0.26 0 0.389-0.001h51.18v102.4h102.4v-102.4h409.6v102.4h102.4v-102.4h51.2c56.554 0 102.4-45.846 102.4-102.4v0-295.936c-28.895 19.952-63.764 33.344-101.446 37.275l-0.954 0.081v104.98h-716.8v-563.2h409.6v-51.2zM972.8 192v-204.8c-0.093-28.24-22.96-51.107-51.191-51.2h-256.009c-28.24 0.093-51.107 22.96-51.2 51.191v204.809c0.093 28.24 22.96 51.107 51.191 51.2h0.009v25.6c0 70.692 57.308 128 128 128s128-57.308 128-128v0-25.6c28.24-0.093 51.107-22.96 51.2-51.191v-0.009zM870.4 268.8c0 42.415-34.385 76.8-76.8 76.8s-76.8-34.385-76.8-76.8v0-25.6h153.6z" />
<glyph unicode="&#xe910;" glyph-name="calendario-flecha" horiz-adv-x="832" d="M632.095 175.288l148.972 134.39c4.215 4.041 6.834 9.717 6.834 16.005 0 0.436-0.013 0.869-0.037 1.298l0.003-0.059c-0.513 5.499-3.022 10.331-6.786 13.832l-0.013 0.012-148.972 134.513c-3.457 3.047-8.025 4.907-13.026 4.907-10.829 0-19.621-8.718-19.741-19.519v-80.538c0-5.701-4.621-10.322-10.322-10.322v0h-214.508c-13.573 0-24.576-11.003-24.576-24.576v0-40.96c0-13.573 11.003-24.576 24.576-24.576v0h214.098c5.701 0 10.322-4.621 10.322-10.322v0-80.077c0.097-10.829 8.899-19.571 19.742-19.571 5.002 0 9.569 1.86 13.048 4.926l-0.022-0.019zM87.368 170.045h151.142c13.234 0 23.962 10.728 23.962 23.962v0 31.089c0 13.234-10.728 23.962-23.962 23.962v0h-142.090c-4.999 0-9.052 4.053-9.052 9.052v416.276c0 4.999 4.053 9.052 9.052 9.052v0h594.698c4.999 0 9.052-4.053 9.052-9.052v0-135.168c0-7.623 6.18-13.804 13.804-13.804v0h60.129c7.623 0 13.804 6.18 13.804 13.804v0 263.332c-2.633 43.904-38.881 78.512-83.213 78.512-1.534 0-3.057-0.041-4.571-0.123l0.211 0.009h-34.693c-4.999 0-9.052 4.053-9.052 9.052v0 60.908c0 4.999-4.053 9.052-9.052 9.052v0h-69.632c-4.999 0-9.052-4.053-9.052-9.052v0-60.908c0-4.999-4.053-9.052-9.052-9.052v0h-332.063c-4.999 0-9.052 4.053-9.052 9.052v0 60.908c0 4.999-4.053 9.052-9.052 9.052v0h-69.632c-4.999 0-9.052-4.053-9.052-9.052v0-60.908c0-4.999-4.053-9.052-9.052-9.052v0h-34.816c-1.197 0.061-2.598 0.096-4.008 0.096-44.597 0-81.034-34.938-83.433-78.936l-0.009-0.213v-552.96c2.605-44.223 39.104-79.099 83.749-79.099 1.345 0 2.682 0.032 4.011 0.094l-0.188-0.007zM817.070 99.553h-802.775c-7.886-0.023-14.272-6.409-14.295-14.293v-24.578c0.023-7.886 6.409-14.272 14.293-14.295h802.818c7.886 0.023 14.272 6.409 14.295 14.293v24.578c-0.023 7.886-6.409 14.272-14.293 14.295h-0.002zM817.111-10.711h-802.816c-7.886-0.023-14.272-6.409-14.295-14.293v-24.578c0.023-7.886 6.409-14.272 14.293-14.295h802.818c7.886 0.023 14.272 6.409 14.295 14.293v24.578c-0.023 7.886-6.409 14.272-14.293 14.295h-0.002z" />
<glyph unicode="&#xe911;" glyph-name="camara" horiz-adv-x="1138" d="M113.787 846.213h170.639l113.787 113.787h341.32l113.787-113.787h170.68c62.843 0 113.787-50.944 113.787-113.787v-682.639c0-62.843-50.944-113.787-113.787-113.787v0h-910.213c-62.843 0-113.787 50.944-113.787 113.787v0 682.639c0 62.843 50.944 113.787 113.787 113.787v0zM568.893 675.574c-157.084 0-284.426-127.342-284.426-284.426s127.342-284.426 284.426-284.426c157.084 0 284.426 127.342 284.426 284.426v0c0 157.084-127.342 284.426-284.426 284.426v0zM568.893 561.787c94.264 0 170.68-76.416 170.68-170.68s-76.416-170.68-170.68-170.68c-94.264 0-170.68 76.416-170.68 170.68v0c0 94.264 76.416 170.68 170.68 170.68v0z" />
<glyph unicode="&#xe912;" glyph-name="cancelar-cuenta" d="M0 413.88v67.994c0.655 3.195 1.516 6.39 1.925 9.626 2.171 17.121 3.482 34.324 6.84 51.364 23.519 125.286 90.839 231.813 185.13 305.379l1.115 0.838c84.951 69.415 194.618 111.475 314.109 111.475 34.679 0 68.53-3.543 101.212-10.286l-3.222 0.556c102.816-18.231 192.087-66.717 260.64-135.793l0.030-0.030c96.709-91.095 156.928-220.001 156.928-362.972 0-35.164-3.643-69.478-10.572-102.584l0.567 3.24c-22.645-125.534-90.054-232.317-184.772-305.449l-1.145-0.85c-63.030-51.128-140.202-87.31-224.753-101.977l-2.944-0.423c-18.309-3.113-36.864-5.325-55.132-7.987h-67.994c-2.908 0.655-5.775 1.475-8.684 1.884-17.449 2.294-35.103 3.482-52.306 6.881-124.713 23.888-230.814 90.629-304.754 184l-0.808 1.057c-51.702 63.34-88.27 141.004-103.042 226.143l-0.423 2.946c-3.113 18.268-5.325 36.864-7.946 55.009zM511.508 899.789c-249.332-0.303-451.338-202.496-451.338-451.87 0-249.561 202.309-451.871 451.871-451.871s451.871 202.309 451.871 451.871c0 0.158 0 0.316 0 0.474v-0.024c-1.092 249.218-203.108 450.888-452.352 451.42h-0.051zM765.46 745.247l-550.216-550.093c-57.546 67.569-92.553 155.873-92.553 252.353 0 215.561 174.747 390.308 390.308 390.308 96.511 0 184.84-35.028 252.968-93.065l-0.549 0.456zM224.010 290.058l445.891 445.809c-45.791 25.806-100.531 41.010-158.822 41.010-181.176 0-328.049-146.872-328.049-328.049 0-58.27 15.192-112.992 41.833-160.42l-0.852 1.65zM258.867 150.262l550.789 550.461c57.361-67.565 92.243-155.777 92.243-252.137 0-215.787-174.93-390.717-390.717-390.717-96.442 0-184.722 34.941-252.873 92.856l0.558-0.463zM800.481 605.409l-446.013-445.932c45.66-25.586 100.201-40.654 158.262-40.654 181.357 0 328.376 147.019 328.376 328.376 0 58.039-15.057 112.562-41.479 159.874l0.854-1.665z" />
<glyph unicode="&#xe913;" horiz-adv-x="965" d="M170.703 38.352h-68.307v819.252h358.385v-255.989l359.299-2.046 15.368 36.831-323.426 323.6h-409.626c-56.482-0.173-102.223-45.914-102.396-102.379v-819.225c0.173-56.482 45.914-102.223 102.379-102.396h247.516c10.724 0 19.417 8.693 19.417 19.417v63.518c0 10.724-8.693 19.417-19.417 19.417v0h-179.192z" />
<glyph unicode="&#xe914;" horiz-adv-x="965" d="M203.746 426.385v-74.228c-0.008-0.251-0.013-0.547-0.013-0.843 0-15.224 12.078-27.627 27.175-28.15l0.048-0.001h150.241l-61.777 87.594c-3.163 4.421-5.452 9.689-6.494 15.392l-0.036 0.238z" />
<glyph unicode="&#xe915;" horiz-adv-x="965" d="M203.746 237.745v-74.228c-0.037-0.53-0.058-1.15-0.058-1.774 0-14.36 11.089-26.131 25.172-27.215l0.093-0.006h230.042l16.239 24.38-51.459 78.843z" />
<glyph unicode="&#xe916;" horiz-adv-x="965" d="M820.21-44.975l-101.83 142.405-105.574-142.797c-5.603-7.469-14.43-12.255-24.376-12.277h-83.157c-16.704 0.166-30.182 13.746-30.182 30.473 0 6.876 2.278 13.221 6.119 18.32l-0.056-0.078 157.338 205.967-151.634 202.44c-3.687 4.98-5.902 11.244-5.902 18.025 0 16.732 13.485 30.315 30.18 30.473h88.436c10.050-0.018 18.956-4.897 24.495-12.411l0.059-0.084 98.042-134.96 100.872 135.352c5.61 7.424 14.417 12.175 24.334 12.19h79.629c16.69-0.184 30.15-13.757 30.15-30.473 0-6.858-2.265-13.186-6.088-18.278l0.057 0.079-150.938-198.479 158.731-209.841c3.746-5.005 5.998-11.317 5.998-18.156 0-16.736-13.49-30.32-30.19-30.474h-89.829c-10.127 0.016-19.094 4.969-24.624 12.581l-0.061 0.088z" />
<glyph unicode="&#xe917;" glyph-name="capas" horiz-adv-x="768" d="M384 960l-384-298.68 384.082-298.68 383.918 298.68-384 298.68zM698.45 502.19l-314.45-244.9-314.86 244.49-69.14-53.78 384-298.68 384 298.68-69.632 54.19zM698.368 288.87l-314.45-244.9-314.778 244.285-69.14-53.576 384-298.68 384 298.68z" />
<glyph unicode="&#xe918;" glyph-name="capas-2" horiz-adv-x="967" d="M483.328 208.261l483.287 375.89-483.287 375.849-483.328-375.89 87.532-68.198zM483.328 71.864l-396.329 307.692-86.999-67.666 483.328-375.89 483.328 375.89-87.654 68.198z" />
<glyph unicode="&#xe919;" glyph-name="carga-masiva" horiz-adv-x="693" d="M-0.205-64h693.402v81.92h-693.402zM-0.205 95.949h693.402v81.92h-693.402zM-0.205 261.888h693.402v81.92h-693.402zM354.867 960l-287.437-287.437h164.25v-246.374h246.374v246.374h164.25z" />
<glyph unicode="&#xe91a;" glyph-name="cargo-abono-t" horiz-adv-x="1053" d="M945.357 794.317v-20.931c-0.093-27.742-22.557-50.206-50.29-50.299h-313.435v-648.438c-0.070-22.865-18.587-41.382-41.445-41.452h-19.995c-22.865 0.070-41.382 18.587-41.452 41.445v648.445h-313.303c-27.742 0.093-50.206 22.557-50.299 50.29v20.94c0.093 27.742 22.557 50.206 50.29 50.299h729.629c27.742-0.093 50.206-22.557 50.299-50.29v-0.009zM386.089 577.884h-75.039v73.032c-0.023 5.57-4.544 10.076-10.117 10.076 0 0 0 0 0 0h-42.885c-5.588 0-10.117-4.53-10.117-10.117v0-72.991h-74.547c-5.588 0-10.117-4.53-10.117-10.117v0-39.444c0-5.588 4.53-10.117 10.117-10.117v0h74.547v-73.073c0-5.588 4.53-10.117 10.117-10.117v0h42.885c5.588 0 10.117 4.53 10.117 10.117v0 73.032h75.039c5.588 0 10.117 4.53 10.117 10.117v0 39.444c0 5.588-4.53 10.117-10.117 10.117v0zM870.769 599.142h-186.204c-8.822 0-15.974-7.152-15.974-15.974v0-64.43c0-8.822 7.152-15.974 15.974-15.974v0h186.245c8.822 0 15.974 7.152 15.974 15.974v0 64.43c0 8.822-7.152 15.974-15.974 15.974v0zM1052.672 882.708v-869.417c-3.022-43.379-38.954-77.424-82.837-77.424-1.652 0-3.292 0.048-4.919 0.143l0.225-0.010h-877.568c-1.415-0.086-3.070-0.135-4.736-0.135-43.884 0-79.816 34.046-82.822 77.166l-0.015 0.261v869.417c3.021 43.38 38.953 77.427 82.837 77.427 1.666 0 3.32-0.049 4.962-0.146l-0.226 0.011h877.568c1.403 0.085 3.043 0.133 4.695 0.133 43.883 0 79.814-34.045 82.822-77.163l0.015-0.261zM1010.115 882.708c-1.553 22.301-20.024 39.803-42.583 39.803-0.87 0-1.734-0.026-2.591-0.077l0.118 0.006h-877.486c-0.739 0.046-1.603 0.072-2.473 0.072-22.559 0-41.031-17.502-42.576-39.669l-0.007-0.134v-869.417c1.553-22.301 20.024-39.803 42.583-39.803 0.87 0 1.734 0.026 2.591 0.077l-0.118-0.006h877.568c0.739-0.046 1.603-0.072 2.473-0.072 22.559 0 41.031 17.502 42.576 39.669l0.007 0.134z" />
<glyph unicode="&#xe91b;" glyph-name="casa-circulo" d="M873.923 809.964c-89.216 92.581-214.286 150.080-352.785 150.080-3.198 0-6.39-0.031-9.573-0.092l0.477 0.007c-2.725 0.055-5.937 0.086-9.156 0.086-138.353 0-263.274-57.507-352.164-149.923l-0.152-0.159c-92.89-89.026-150.617-214.108-150.617-352.672 0-3.281 0.032-6.555 0.097-9.821l-0.008 0.489c-0.054-2.713-0.085-5.911-0.085-9.116 0-138.352 57.507-263.273 149.922-352.164l0.158-0.151c89.029-92.914 214.127-150.657 352.711-150.657 3.268 0 6.528 0.032 9.781 0.096l-0.487-0.008c2.713-0.054 5.911-0.085 9.116-0.085 138.352 0 263.273 57.507 352.164 149.922l0.151 0.158c92.914 89.029 150.657 214.127 150.657 352.711 0 3.268-0.032 6.528-0.096 9.781l0.008-0.487c0.055 2.731 0.086 5.95 0.086 9.177 0 138.5-57.5 263.571-149.931 352.642l-0.151 0.145zM767.959 447.959v-307.2h-179.159v256.041h-153.6v-256.041h-179.159v307.2h-102.4l358.4 358.4 383.918-358.4z" />
<glyph unicode="&#xe91c;" glyph-name="casas-grupo" horiz-adv-x="1075" d="M768 243.2h-102.4v-307.2h-153.6v256h-204.8v-256h-153.6v307.2h-102.4l358.4 307.2 358.4-307.2zM204.8 960l204.8-204.8h-51.2v-153.6h-102.4v153.6h-102.4v-153.6h-102.4v153.6h-51.2l204.8 204.8zM819.2 908.8l256-256h-51.2v-204.8h-153.6v153.6h-102.4v-153.6h-84.992l-68.608 57.836v146.964h-51.2z" />
<glyph unicode="&#xe91d;" glyph-name="casas-varias" horiz-adv-x="1075" d="M768 243.2h-102.4v-307.2h-153.6v256h-204.8v-256h-153.6v307.2h-102.4l358.4 307.2 358.4-307.2zM204.8 960l204.8-204.8h-51.2v-153.6h-102.4v153.6h-102.4v-153.6h-102.4v153.6h-51.2l204.8 204.8zM819.2 908.8l256-256h-51.2v-204.8h-153.6v153.6h-102.4v-153.6h-84.992l-68.608 57.876v146.924h-51.2z" />
<glyph unicode="&#xe91e;" glyph-name="cerrar-cruz" d="M618.803 448l405.197-405.197v-106.803h-106.803l-405.197 405.197-405.197-405.197h-106.803v106.803l405.197 405.197-405.197 405.197v106.803h106.803l405.197-405.197 405.197 405.197h106.803v-106.803z" />
<glyph unicode="&#xe91f;" glyph-name="cerrar-sesion" d="M630.294 243.734l147.367 147.322h-550.111v113.842h550.155l-147.367 147.322 80.807 80.139 284.36-284.36-284.405-284.494zM910.202 960c62.849 0 113.798-50.949 113.798-113.798v0-265.661l-113.798 113.798v151.864h-796.449v-796.405h796.449v151.908l113.798 113.753v-265.661c0-62.849-50.949-113.798-113.798-113.798v0h-796.449c-0.013 0-0.029 0-0.045 0-62.799 0-113.709 50.909-113.709 113.709v0 796.494c-0.001 0.132-0.001 0.289-0.001 0.446 0 62.462 50.522 113.124 112.931 113.352h797.273z" />
<glyph unicode="&#xe920;" glyph-name="check-barra" d="M512 960c-282.77 0-512-229.23-512-512s229.23-512 512-512c282.77 0 512 229.23 512 512v0c0 282.77-229.23 512-512 512v0zM512 38.4c-226.216 0-409.6 183.384-409.6 409.6s183.384 409.6 409.6 409.6c226.216 0 409.6-183.384 409.6-409.6v0c-0.303-226.094-183.506-409.297-409.57-409.6h-0.030zM256 294.4h512v-102.4h-512v102.4zM424.96 488.96l-97.28 97.28-71.68-71.68 168.96-168.96 343.040 343.040-71.68 71.68z" />
<glyph unicode="&#xe921;" glyph-name="checkbox" d="M398.213 163.574l-284.426 284.426 80.2 80.773 204.227-204.227 431.8 431.8 80.2-80.773zM910.213 960h-796.426c-0.122 0-0.266 0.001-0.41 0.001-62.617 0-113.377-50.761-113.377-113.377 0-0.144 0-0.288 0.001-0.432v0.022-796.426c0-62.843 50.944-113.787 113.787-113.787v0h796.426c62.843 0 113.787 50.944 113.787 113.787v0 796.426c0 0.012 0 0.027 0 0.041 0 62.82-50.926 113.746-113.746 113.746-0.014 0-0.029 0-0.043 0h0.002z" />
<glyph unicode="&#xe922;" glyph-name="cheque_cancelar_dinero" horiz-adv-x="1676" d="M575.898 463.36l-82.79-47.77c-6.426 3.775-14.154 6.004-22.403 6.004-0.386 0-0.771-0.005-1.154-0.015l0.057 0.001c-43.913 0.144-82.757 21.717-106.639 54.805l-0.267 0.388c-16.698 22.142-26.744 50.119-26.744 80.442 0 54.050 31.917 100.645 77.933 121.965l0.831 0.345c7.117 1.91 12.27 8.302 12.27 15.899 0 0.985-0.087 1.951-0.253 2.888l0.015-0.099c-0.666 12.442 0 24.934 0 38.963h90.163c0-13.875 0.819-27.29 0-40.602-0.083-0.592-0.13-1.277-0.13-1.972 0-6.827 4.545-12.593 10.775-14.436l0.107-0.027c44.888-19.85 76.33-62.62 79.596-113.067l0.020-0.392v-8.397h-88.781c-2.612 8.55-5.498 15.777-8.896 22.707l0.397-0.895c-7.811 13.173-21.957 21.865-38.134 21.865-5.424 0-10.619-0.977-15.42-2.765l0.305 0.1c-17.588-6.315-29.942-22.847-29.942-42.264 0-24.742 20.058-44.8 44.8-44.8 0.518 0 1.035 0.009 1.549 0.026l-0.075-0.002c37.403-0.112 71.146-15.686 95.192-40.662l0.040-0.042c2.56-2.611 5.12-5.12 7.373-8.090zM180.787 734.72c-0.191 2.335-0.301 5.054-0.301 7.798 0 52.695 40.225 95.995 91.644 100.868l0.407 0.031h961.382l124.57 71.68h-1147.904c-59.442-5.722-105.545-55.413-105.545-115.872 0-3.079 0.12-6.13 0.354-9.148l-0.025 0.4v-598.477l75.418 43.571zM1554.278 184.013c0.197-2.367 0.309-5.122 0.309-7.904 0-52.68-40.202-95.97-91.6-100.864l-0.408-0.031h-961.229l-124.877-72.090h1148.058c59.451 5.712 105.565 55.408 105.565 115.874 0 3.168-0.127 6.307-0.375 9.412l0.026-0.409v598.682l-75.469-43.571zM1088.614 187.494h329.267c14.592 0 26.419 7.27 26.419 16.282v86.272c0 8.96-11.827 16.282-26.419 16.282h-329.267c-14.592 0-26.419-7.27-26.419-16.282v-86.272c0-8.96 11.827-16.282 26.419-16.282zM336.64 375.962c-0.247-2.209-0.389-4.771-0.389-7.365 0-0.723 0.011-1.443 0.033-2.161l-0.003 0.105c0.956-13.489 3.785-26.031 8.239-37.773l-0.303 0.909 80.128 46.080zM1667.482 926.822v0c-11.754 19.899-33.094 33.037-57.502 33.037-12.148 0-23.536-3.254-33.339-8.939l0.319 0.171-1543.782-891.187c-22.002-11.167-36.817-33.626-36.817-59.545 0-36.76 29.8-66.56 66.56-66.56 13.717 0 26.464 4.149 37.056 11.261l-0.239-0.151 1543.475 891.187c19.948 11.743 33.125 33.109 33.125 57.553 0 12.21-3.288 23.652-9.026 33.49l0.17-0.316z" />
<glyph unicode="&#xe923;" glyph-name="circulo-cruz" horiz-adv-x="1365" d="M1054.72 568.586l-80.773 80.118-120.586-120.586-120.627 120.586-80.2-80.2 120.586-120.504-120.586-120.586 80.2-80.773 120.586 121.16 120.586-121.16 80.773 80.773-121.119 120.586zM113.787 448c0.074 157.822 91.968 294.165 225.155 358.511l2.378 1.036v124.027c-200.603-72.804-341.322-261.745-341.322-483.553s140.719-410.749 337.752-482.418l3.569-1.135v123.986c-135.565 65.382-227.459 201.724-227.533 359.537v0.010zM853.32 960c-282.77 0-512-229.23-512-512s229.23-512 512-512c282.77 0 512 229.23 512 512v0c-0.442 282.592-229.408 511.558-511.957 512h-0.043zM853.32 49.787c-219.909 0.023-398.172 178.301-398.172 398.213 0 219.927 178.286 398.213 398.213 398.213s398.213-178.286 398.213-398.213v0c-0.256-219.838-178.412-397.98-398.231-398.213h-0.023z" />
<glyph unicode="&#xe924;" glyph-name="circulo-flecha" d="M512 36.844c0.012 0 0.027 0 0.041 0 227.075 0 411.156 184.081 411.156 411.156s-184.081 411.156-411.156 411.156c-227.075 0-411.156-184.081-411.156-411.156v0c0.927-226.687 184.431-410.206 411.024-411.156h0.091zM512-64c-282.77 0-512 229.23-512 512s229.23 512 512 512c282.77 0 512-229.23 512-512v0c0.001-0.328 0.001-0.718 0.001-1.107 0-282.159-228.735-510.894-510.894-510.894-0.389 0-0.778 0-1.167 0.001h0.060zM415.744 423.916l-108.544 108.052v-288.768h288.768l-108.012 108.544 254.484 254.976-71.68 71.68z" />
<glyph unicode="&#xe925;" glyph-name="cirulo-flecha" horiz-adv-x="1071" d="M186.163 541.102c-51.419 0-93.102-41.683-93.102-93.102s41.683-93.102 93.102-93.102c51.419 0 93.102 41.683 93.102 93.102v0c-0.139 51.363-41.739 92.963-93.089 93.102h-0.013zM186.163 261.837c-102.797 0.023-186.122 83.362-186.122 186.163 0 102.815 83.348 186.163 186.163 186.163s186.163-83.348 186.163-186.163v0c0-0.012 0-0.027 0-0.041 0-102.792-83.33-186.122-186.122-186.122-0.014 0-0.029 0-0.043 0h0.002zM442.204 494.572h162.898v139.592l186.163-186.163-186.163-186.163v139.633h-162.734v93.061zM186.163 727.265c-21.615-0.021-42.666-2.392-62.924-6.872l1.934 0.359c92.123 144.667 251.667 239.247 433.301 239.247 282.77 0 512-229.23 512-512s-229.23-512-512-512c-181.634 0-341.178 94.581-432.068 237.178l-1.233 2.069c18.324-4.121 39.374-6.492 60.975-6.513h0.015c37.756 0.001 73.754 7.526 106.577 21.158l-1.842-0.678c67.798-70.078 162.691-113.582 267.745-113.582 205.653 0 372.367 166.715 372.367 372.367s-166.715 372.367-372.367 372.367c-105.054 0-199.948-43.504-267.647-113.48l-0.098-0.102c-30.98 12.954-66.979 20.479-104.734 20.48h-0.001z" />
<glyph unicode="&#xe926;" glyph-name="clasificaciones" horiz-adv-x="1154" d="M519.219 960v-1024c-294.246 25.6-519.219 245.76-519.219 512s224.973 486.4 519.219 512zM634.573 960v-460.8h519.219c-28.877 245.76-242.432 435.2-519.219 460.8zM634.573 396.8v-460.8c271.36 25.6 490.342 215.040 519.219 460.8z" />
<glyph unicode="&#xe927;" glyph-name="clc" horiz-adv-x="2553" d="M262.38 1.772c-80.36 42.977-145.563 104.998-191.124 180.24l-1.231 2.19c-44.038 73.214-70.087 161.583-70.087 256.035 0 2.757 0.022 5.509 0.066 8.256l-0.005-0.414c-0.037 2.287-0.059 4.985-0.059 7.688 0 94.451 26.048 182.818 71.352 258.31l-1.268-2.278c46.792 77.431 111.994 139.452 189.73 181.144l2.625 1.286c77.234 41.52 169.001 65.916 266.465 65.916 3.023 0 6.040-0.023 9.052-0.070l-0.455 0.006c2.446 0.037 5.333 0.059 8.225 0.059 81.057 0 158.212-16.708 228.208-46.867l-3.749 1.437c50.935-22.224 94.677-50.999 132.67-85.929l-0.338 0.307c11.273-10.449 18.305-25.336 18.305-41.866s-7.032-31.416-18.268-41.832l-0.037-0.034-64.118-59.234c-10.119-9.416-23.733-15.195-38.696-15.195-14.385 0-27.522 5.34-37.537 14.147l0.064-0.055c-54.885 49.533-127.955 79.838-208.104 79.838-1.857 0-3.711-0.016-5.56-0.049l0.278 0.004c-1.692 0.031-3.688 0.049-5.689 0.049-58.071 0-112.647-14.962-160.084-41.241l1.696 0.862c-47.596-26.588-85.864-64.83-111.738-110.959l-0.744-1.444c-25.369-45.705-40.301-100.231-40.301-158.245 0-2.023 0.018-4.041 0.054-6.055l-0.004 0.303c-0.031-1.692-0.049-3.688-0.049-5.689 0-58.071 14.962-112.647 41.241-160.084l-0.862 1.696c26.599-47.565 64.839-85.805 110.958-111.659l1.445-0.744c45.741-25.417 100.317-40.379 158.388-40.379 2 0 3.996 0.018 5.988 0.053l-0.299-0.004c1.522-0.027 3.317-0.042 5.115-0.042 80.247 0 153.349 30.597 208.274 80.76l-0.24-0.216c9.988 8.885 23.223 14.314 37.725 14.314 14.956 0 28.564-5.773 38.716-15.213l-0.035 0.032 64.276-59.313c11.314-10.454 18.375-25.368 18.375-41.931 0-16.374-6.901-31.136-17.952-41.537l-0.029-0.027c-37.982-35.292-82.284-64.446-130.913-85.492l-2.995-1.154c-66.568-28.719-144.070-45.421-225.472-45.421-2.674 0-5.345 0.018-8.011 0.054l0.405-0.004c-2.398-0.036-5.229-0.057-8.065-0.057-97.155 0-188.619 24.365-268.616 67.319l3.036-1.489zM1038.887 943.065h112.876c32.105 0 58.132-26.026 58.132-58.132v0-745.236h438.351c32.105 0 58.132-26.026 58.132-58.132v0-70.42c0-32.105-26.026-58.132-58.132-58.132v0h-609.359c-32.105 0-58.132 26.026-58.132 58.132v0 873.787c0 32.105 26.026 58.132 58.132 58.132v0zM1899.993 1.772c-80.362 42.974-145.565 104.995-191.123 180.239l-1.231 2.19c-44.038 73.207-70.087 161.569-70.087 256.014 0 2.765 0.022 5.524 0.067 8.279l-0.005-0.416c-0.038 2.31-0.060 5.035-0.060 7.765 0 94.452 26.049 182.82 71.354 258.312l-1.268-2.279c46.801 77.4 112.002 139.394 189.728 181.064l2.627 1.286c80.459 41.453 175.587 65.754 276.391 65.754 83.405 0 162.924-16.636 235.42-46.771l-4.064 1.497c46.369-20.237 86.304-45.58 121.686-76.060l-0.618 0.52c14.67-12.642 23.901-31.246 23.901-52.006 0-19.907-8.488-37.832-22.043-50.352l-0.046-0.042-47.262-43.796c-12.152-11.311-28.503-18.254-46.476-18.254-16.715 0-32.028 6.005-43.899 15.976l0.105-0.086c-53.889 46.059-124.392 74.086-201.441 74.086-1.818 0-3.633-0.016-5.443-0.047l0.272 0.004c-1.692 0.031-3.688 0.049-5.689 0.049-58.071 0-112.647-14.962-160.084-41.241l1.696 0.862c-47.565-26.599-85.805-64.839-111.659-110.958l-0.744-1.445c-25.462-45.774-40.451-100.397-40.451-158.521 0-1.87 0.016-3.737 0.046-5.6l-0.004 0.281c-0.031-1.692-0.049-3.688-0.049-5.689 0-58.071 14.962-112.647 41.241-160.084l-0.862 1.696c26.599-47.565 64.839-85.805 110.958-111.659l1.445-0.744c45.741-25.417 100.317-40.379 158.388-40.379 2 0 3.996 0.018 5.988 0.053l-0.299-0.004c1.498-0.026 3.265-0.041 5.036-0.041 77.235 0 147.841 28.379 201.961 75.278l-0.386-0.327c11.82 10.060 27.264 16.179 44.137 16.179 17.959 0 34.299-6.932 46.49-18.266l47.22-43.835c13.646-12.58 22.164-30.544 22.164-50.498 0-20.696-9.164-39.251-23.655-51.831l-0.085-0.072c-35.088-30.671-75.518-56.456-119.49-75.636l-2.996-1.164c-66.316-28.477-143.5-45.035-224.552-45.035-2.887 0-5.769 0.021-8.646 0.063l0.435-0.005c-2.398-0.036-5.229-0.057-8.065-0.057-97.155 0-188.619 24.365-268.616 67.319l3.036-1.489z" />
<glyph unicode="&#xe928;" glyph-name="c-letra-cuadro" d="M0 846.213c0 62.843 50.944 113.787 113.787 113.787v0h796.426c62.843 0 113.787-50.944 113.787-113.787v0-796.426c0-62.843-50.944-113.787-113.787-113.787v0h-796.426c-0.012 0-0.027 0-0.041 0-62.82 0-113.746 50.926-113.746 113.746 0 0.014 0 0.029 0 0.043v-0.002 796.426zM113.787 846.213v-796.426h796.426v796.426h-796.426zM455.107 732.426h113.787c62.843 0 113.787-50.944 113.787-113.787v0-56.893h-113.787v56.934h-113.787v-341.32h113.787v56.852h113.787v-56.893c0-62.843-50.944-113.787-113.787-113.787v0h-113.787c-62.843 0-113.787 50.944-113.787 113.787v0 341.361c0.023 62.825 50.958 113.746 113.787 113.746v0z" />
<glyph unicode="&#xe929;" glyph-name="clip" horiz-adv-x="512" d="M442.368 727.265v-535.265c0-102.826-83.357-186.184-186.184-186.184s-186.184 83.357-186.184 186.184v0 581.837c0 64.268 52.099 116.367 116.367 116.367s116.367-52.099 116.367-116.367v0-488.735c0-25.709-20.842-46.551-46.551-46.551s-46.551 20.842-46.551 46.551v0 442.163h-69.632v-442.368c0-64.268 52.099-116.367 116.367-116.367s116.367 52.099 116.367 116.367v488.94c0 102.928-83.44 186.368-186.368 186.368s-186.368-83.44-186.368-186.368v0-581.632c0-141.385 114.615-256 256-256s256 114.615 256 256v0 535.060z" />
<glyph unicode="&#xe92a;" glyph-name="clonar-registro" horiz-adv-x="974" d="M596.070 108.493h-510.925c-46.966 0.145-85.001 38.179-85.146 85.132v681.23c0.145 46.966 38.179 85.001 85.132 85.146h340.596l255.232-255.437v-138.24h-84.89v95.642h-185.549c-15.1 0-27.341 12.241-27.341 27.341v0 185.549h-298.035v-680.96h595.814c-0.145-46.966-38.179-85.001-85.132-85.146h-0.014zM815.974 689.51v-199.68h72.038v-468.326h-595.712c0-0.030 0-0.067 0-0.103 0-47.076 38.090-85.256 85.132-85.401h510.888c46.966 0.145 85.001 38.179 85.146 85.132v510.939zM551.782 508.109v-74.445h-230.042c-10.378 0-18.79-8.413-18.79-18.79v0-60.109c0-10.378 8.413-18.79 18.79-18.79h230.042v-74.189c0.003-14.561 11.807-26.363 26.368-26.363 7.051 0 13.456 2.768 18.187 7.276l-0.011-0.010 128.307 122.214c5 4.806 8.107 11.551 8.107 19.021s-3.106 14.215-8.098 19.012l-0.009 0.008-128 123.853c-4.738 4.586-11.204 7.413-18.33 7.413-14.559 0-26.362-11.799-26.368-26.356v-0.001z" />
<glyph unicode="&#xe92b;" glyph-name="comprobacion-balanza" horiz-adv-x="1042" d="M944.66 814.961v114.033c0 17.121-19.087 31.007-42.271 31.007h-860.16c-23.429 0-42.353-13.885-42.353-31.007v-114.033c0-17.121 18.924-31.007 42.271-31.007h860.16c23.347 0 42.271 13.885 42.271 31.007zM482.755 70.431h-362.537v643.973h722.862v-182.886c0-6.583 5.336-11.919 11.919-11.919v0h20.48c6.583 0 11.919 5.336 11.919 11.919v0 227.328h-811.745v-732.856h407.142c8.393 0 15.196 6.804 15.196 15.196v0 14.008c-0.023 8.383-6.813 15.173-15.194 15.196h-0.002zM205.455 664.023h171.377c19.534 0 35.369-15.835 35.369-35.369s-15.835-35.369-35.369-35.369v0h-171.377c-19.534 0-35.369 15.835-35.369 35.369s15.835 35.369 35.369 35.369v0zM541.327 664.023c-13.143 0-23.798-10.655-23.798-23.798v0-23.142c0-13.143 10.655-23.798 23.798-23.798v0h82.944q13.394 1.27 26.911 1.311c9.011 0 18.268-0.451 27.279-1.311h57.344c13.143 0 23.798 10.655 23.798 23.798v0 23.142c0 13.143-10.655 23.798-23.798 23.798v0zM412.303 496.087v23.142c0 13.143-10.655 23.798-23.798 23.798h-194.601c-13.143 0-23.798-10.655-23.798-23.798v0-23.142c0-13.143 10.655-23.798 23.798-23.798h194.56c13.143 0 23.798 10.655 23.798 23.798v0zM193.905 421.908c-13.143 0-23.798-10.655-23.798-23.798v0-23.306c0-13.143 10.655-23.798 23.798-23.798h176.824c3.725 25.795 10.326 49.059 19.584 70.924l-0.701-1.865-1.147 1.72zM424.796 239.309l48.128 122.88q18.924 48.374 37.683 96.788c1.827 8.479 9.262 14.741 18.159 14.741 1.139 0 2.254-0.103 3.336-0.299l-0.113 0.017h107.807c0.246-0.020 0.532-0.031 0.821-0.031 3.605 0 6.795 1.778 8.741 4.504l0.022 0.033c19.675 24.892 49.867 40.722 83.757 40.722 33.688 0 63.722-15.642 83.237-40.059l0.164-0.213c2.18-3.037 5.701-4.993 9.679-4.993 0.327 0 0.651 0.013 0.972 0.039l-0.042-0.003h106.004c14.049 0 17.9-2.621 22.979-15.565l81.92-208.896c2.529-7.319 3.989-15.753 3.989-24.529 0-9.176-1.596-17.979-4.527-26.146l0.169 0.54c-12.939-43.696-52.721-75.032-99.821-75.032-49.979 0-91.717 35.283-101.664 82.299l-0.12 0.679c-1.143 5.035-1.797 10.818-1.797 16.753 0 10.487 2.044 20.496 5.755 29.651l-0.19-0.529c24.003 59.597 46.94 119.562 70.287 179.405 0.696 1.843 1.229 3.727 2.007 6.103h-75.244c1.898-7.54 2.988-16.196 2.988-25.107 0-50.176-34.54-92.284-81.141-103.845l-0.736-0.154q-3.564-0.86-7.127-1.475v-296.755h87.941c11.311 0 20.48-9.169 20.48-20.48v0-33.669c0-11.311-9.169-20.48-20.48-20.48v0h-211.108c-11.311 0-20.48 9.169-20.48 20.48v0 33.3c0 11.311 9.169 20.48 20.48 20.48v0h87.736v297.124c-50.747 9.039-88.777 52.826-88.777 105.495 0 6.461 0.572 12.788 1.669 18.934l-0.096-0.648c0.41 2.335 0.86 4.628 1.434 6.922h-75.203c0.86-2.54 1.516-4.71 2.335-6.84 22.938-58.737 45.425-117.637 69.14-176.128 3.891-9.333 6.151-20.175 6.151-31.545 0-9.22-1.486-18.093-4.232-26.392l0.17 0.593c-13.141-43.226-52.648-74.141-99.375-74.141-52.011 0-95.075 38.301-102.529 88.236l-0.070 0.569c-0.327 1.599-0.722 2.971-1.212 4.298l0.065-0.202zM993.239 266.67l-45.588 116.613c-1.528 3.853-5.224 6.528-9.544 6.528s-8.015-2.675-9.519-6.459l-0.024-0.069-45.466-116.613c-0.445-1.105-0.702-2.386-0.702-3.727 0-5.655 4.585-10.24 10.24-10.24 0.002 0 0.004 0 0.006 0h91.054c0.002 0 0.004 0 0.006 0 5.655 0 10.24 4.585 10.24 10.24 0 1.341-0.258 2.622-0.727 3.796l0.024-0.069zM518.676 383.283l-45.384-116.408c-0.445-1.106-0.704-2.388-0.704-3.731 0-4.317 2.671-8.010 6.451-9.516l0.069-0.024c1.105-0.44 2.386-0.695 3.727-0.696h90.891c0.002 0 0.004 0 0.006 0 5.655 0 10.24 4.585 10.24 10.24 0 1.341-0.258 2.622-0.727 3.796l0.024-0.069-45.507 116.408c-1.528 3.853-5.224 6.528-9.544 6.528s-8.015-2.675-9.519-6.459l-0.024-0.069z" />
<glyph unicode="&#xe92c;" glyph-name="concepto-balanza" horiz-adv-x="1402" d="M1396.449 361.984l-111.616 285c-6.922 17.613-12.288 21.217-31.293 21.217h-144.425c-0.35-0.027-0.758-0.042-1.17-0.042-5.449 0-10.277 2.66-13.256 6.753l-0.033 0.047c-26.809 33.56-67.728 54.873-113.626 54.873-46.173 0-87.308-21.57-113.879-55.182l-0.232-0.305c-2.682-3.763-7.030-6.187-11.944-6.187-0.395 0-0.786 0.016-1.173 0.046l0.051-0.003h-146.842c-1.319 0.244-2.837 0.384-4.388 0.384-12.121 0-22.249-8.533-24.704-19.919l-0.030-0.166q-25.559-65.946-51.323-131.85-32.768-83.722-65.536-167.404v-30.966c0.576-1.529 1.113-3.396 1.512-5.313l0.045-0.258c10.185-68.87 68.886-121.123 139.791-121.123 63.705 0 117.559 42.179 135.158 100.134l0.261 1c3.501 10.488 5.521 22.564 5.521 35.111 0 15.499-3.082 30.278-8.667 43.758l0.279-0.759c-32.317 79.708-62.956 159.744-94.208 239.944-1.106 2.908-2.007 5.857-3.195 9.339h102.4q-1.147-4.669-1.966-9.421c-1.364-7.492-2.145-16.115-2.145-24.92 0-71.747 51.802-131.395 120.045-143.582l0.883-0.131v-404.89h-119.439c-15.405 0-27.894-12.488-27.894-27.894v-45.384c0-15.405 12.488-27.894 27.894-27.894v0h287.662c15.405 0 27.894 12.488 27.894 27.894v0 45.834c0 15.405-12.488 27.894-27.894 27.894v0h-119.808v404.398q4.874 0.819 9.708 2.007c64.486 15.954 111.541 73.316 111.541 141.667 0 12.188-1.496 24.026-4.315 35.341l0.212-1.003h102.4c-1.065-3.236-1.802-5.816-2.744-8.192-31.662-81.92-62.792-163.512-95.56-244.695-4.808-11.766-7.599-25.42-7.599-39.726 0-8.070 0.888-15.932 2.572-23.495l-0.134 0.716c13.65-65.053 70.546-113.2 138.688-113.2 64.226 0 118.462 42.772 135.777 101.386l0.254 1.001c3.76 10.39 5.934 22.38 5.934 34.879 0 11.965-1.992 23.464-5.663 34.185l0.221-0.742zM776.929 386.724c0.605-1.506 0.956-3.251 0.956-5.079 0-7.705-6.238-13.952-13.939-13.967h-123.864c-0.004 0-0.009 0-0.014 0-7.714 0-13.967 6.253-13.967 13.967 0 1.828 0.351 3.573 0.989 5.173l-0.033-0.094 61.85 158.597c2.093 5.238 7.125 8.872 13.005 8.872s10.912-3.634 12.972-8.778l0.033-0.094zM1322.517 367.432h-124.068c-0.002 0-0.004 0-0.005 0-7.714 0-13.967 6.253-13.967 13.967 0 1.859 0.363 3.632 1.022 5.254l-0.034-0.093 61.932 158.884c2.093 5.238 7.125 8.872 13.005 8.872s10.912-3.634 12.972-8.778l0.033-0.094 62.095-158.884c0.605-1.506 0.956-3.251 0.956-5.079 0-7.705-6.238-13.952-13.939-13.967h-0.001zM548.864 175.247v-26.255h-514.335c-19.213 0.626-34.55 16.351-34.55 35.658 0 0.424 0.007 0.846 0.022 1.267l-0.002-0.061v30.188c-0.013 0.361-0.021 0.785-0.021 1.211 0 19.25 15.246 34.939 34.321 35.651l0.065 0.002h448.758c14.096-32.492 36.806-59.022 65.267-77.414l0.678-0.41zM0 415.683v30.188c-0.013 0.361-0.021 0.785-0.021 1.211 0 19.25 15.246 34.939 34.321 35.651l0.065 0.002h489.923l-40.96-104.202h-448.799c-19.14 0.714-34.386 16.403-34.386 35.653 0 0.426 0.007 0.85 0.022 1.272l-0.002-0.061zM0 643.256v30.024c-0.013 0.361-0.021 0.785-0.021 1.211 0 19.25 15.246 34.939 34.321 35.651l0.065 0.002h577.454l-39.24-104.202h-538.051c-19.221 0.616-34.568 16.345-34.568 35.659 0 0.582 0.014 1.161 0.042 1.737l-0.003-0.081zM0 892.785v30.351c-0.013 0.359-0.020 0.782-0.020 1.206 0 19.307 15.337 35.032 34.492 35.657l0.057 0.001h856.433c19.14-0.714 34.386-16.403 34.386-35.653 0-0.426-0.007-0.85-0.022-1.272l0.002 0.061v-30.188c0.013-0.361 0.021-0.785 0.021-1.211 0-19.25-15.246-34.939-34.321-35.651l-0.065-0.002h-856.433c-19.21 0.629-34.545 16.353-34.545 35.658 0 0.366 0.006 0.732 0.016 1.095l-0.001-0.053z" />
<glyph unicode="&#xe92d;" glyph-name="configuracion-usuario" horiz-adv-x="1283" d="M647.168 234.639c36.068 18.087 78.003 33.082 121.906 42.853l3.677 0.687c-59.492 48.384-97.191 121.582-97.191 203.584 0 118.647 78.921 218.861 187.13 251.009l1.853 0.472-41.656 72.008c-4.053 7.182-11.634 11.951-20.329 11.951-3 0-5.868-0.568-8.501-1.602l0.158 0.055-118.047-47.309c-23.069 18.080-49.419 33.644-77.697 45.525l-2.257 0.841-17.531 125.42c-2.023 11.333-11.804 19.825-23.567 19.825-0.023 0-0.047 0-0.070 0h-189.313c-0.030 0-0.065 0-0.1 0-11.778 0-21.569-8.513-23.553-19.722l-0.021-0.144-17.49-125.379c-30.551-12.722-56.914-28.286-80.748-46.935l0.753 0.568-117.596 47.309c-2.475 0.98-5.343 1.547-8.343 1.547-8.695 0-16.276-4.77-20.269-11.835l-0.060-0.116-94.659-163.84c-2.045-3.4-3.255-7.504-3.255-11.891 0-7.439 3.479-14.065 8.899-18.341l99.5-77.207c-1.921-14.030-3.121-30.426-3.316-47.064l-0.002-0.245c0.158-16.344 1.359-32.254 3.539-47.85l-0.222 1.934-99.86-78.438c-5.469-4.313-8.948-10.939-8.948-18.378 0-4.387 1.21-8.491 3.314-11.997l-0.059 0.106 94.659-163.84c4.201-7.123 11.835-11.826 20.567-11.826 2.908 0 5.694 0.521 8.269 1.476l-0.165-0.053 117.842 47.8c23.089-18.427 49.526-34.143 77.983-45.975l2.176-0.802 17.531-125.42c2.006-11.353 11.796-19.866 23.574-19.866 0.035 0 0.071 0 0.106 0h130.739v20.48c0 80.855 53.494 152.166 150.692 200.704zM460.39 320.983c-91.482 0-165.642 74.161-165.642 165.642s74.161 165.642 165.642 165.642c91.482 0 165.642-74.161 165.642-165.642v0c0-91.482-74.161-165.642-165.642-165.642v0zM745.472 473.231c0-98.924 80.194-179.118 179.118-179.118s179.118 80.194 179.118 179.118c0 98.924-80.194 179.118-179.118 179.118v0c-98.91 0-179.095-80.171-179.118-179.075v-0.002zM924.549 204.657c-197.919 0-358.195-80.159-358.195-179.118v-89.58h716.39v89.58c0 98.959-160.276 179.118-358.195 179.118z" />
<glyph unicode="&#xe92e;" glyph-name="contador" horiz-adv-x="1280" d="M128 960h1024c70.692 0 128-57.308 128-128v0-768c0-70.692-57.308-128-128-128v0h-1024c-70.692 0-128 57.308-128 128v0 768c0 70.692 57.308 128 128 128v0zM128 832v-768h448.020v768h-448.020zM1152 64v768h-79.34c7.966-18.403 12.599-39.834 12.599-62.347 0-3.514-0.113-7.002-0.335-10.46l0.024 0.472c-7.714-39.558-23.605-74.48-45.902-104.339l0.478 0.669-149.135-163.185 212.5 1.27 0.655-78.070-332.8 1.925-2.54 64.020s195.215 206.725 204.8 225.28c8.97 17.9 45.425 124.805-44.81 124.805-39.124-0.919-70.488-32.853-70.488-72.112 0-3.91 0.311-7.748 0.91-11.49l-0.054 0.412-98.55-0.655c1.78 31.039 10.584 59.67 24.833 84.809l-0.503-0.964h-80.323v-768h165.11l-0.778 55.009 62.095 0.655c32.724 5.865 57.453 33.455 58.855 67.072l0.005 0.143c0.377 2.444 0.592 5.262 0.592 8.132 0 31.014-25.142 56.156-56.156 56.156-2.070 0-4.113-0.112-6.125-0.33l0.249 0.022c-8.192 0-68.485-3.195-68.485-55.665h-97.157s2.54 131.85 165.765 131.85c166.38 0 157.45-129.27 157.45-129.27 0.004-0.359 0.006-0.783 0.006-1.208 0-48.404-28.843-90.071-70.279-108.753l-0.752-0.303 33.26-23.675h104.325zM442.9 192h-96.010v371.22l-115.22-35.84v78.684l200.95 71.68h10.24z" />
<glyph unicode="&#xe92f;" glyph-name="contratos-regreso-flecha" horiz-adv-x="789" d="M789.176 752.783v-598.712c0.013-0.484 0.020-1.054 0.020-1.625 0-35.606-28.865-64.471-64.471-64.471s-64.471 28.865-64.471 64.471c0 0.571 0.007 1.141 0.022 1.709l-0.002-0.084v605.225c0 0.905-0.734 1.638-1.638 1.638v0h-445.112v-45.998c-0.016-13.086-10.628-23.687-23.716-23.687-6.399 0-12.207 2.535-16.473 6.655l0.007-0.007-115.343 111.288c-4.493 4.322-7.284 10.386-7.284 17.101s2.791 12.779 7.276 17.093l0.008 0.007 115.466 110.019c4.245 4.043 10.004 6.53 16.343 6.53 13.090 0 23.703-10.605 23.716-23.691v-46.122h438.272c75.85 0 137.339-61.489 137.339-137.339v0zM585.728 565.678v-573.030c-0.023-31.291-25.395-56.648-56.689-56.648-0.043 0-0.086 0-0.13 0h-472.221c-31.294 0-56.665 25.357-56.689 56.645v573.032c0.023 31.291 25.395 56.648 56.689 56.648 0 0 0 0 0 0h24.044v-224.256l87.204 37.356 87.204-37.396v199.393c0 0.819 0 1.597 0 2.376v22.528h273.9c31.294 0 56.665-25.357 56.689-56.645v-0.002zM512 10.752l-41.452 79.258c-4.833 8.438-7.66 12.861-8.438 14.090 28.070 13.398 47.119 41.555 47.119 74.161 0 2.935-0.154 5.834-0.455 8.689l0.030-0.356c0.145 1.878 0.227 4.067 0.227 6.275 0 47.89-38.822 86.712-86.712 86.712-2.994 0-5.952-0.152-8.868-0.448l0.367 0.030h-111.493c-12.288 0-16.384-4.096-16.384-16.384v-252.723c0-12.288 4.096-16.384 16.384-16.384h32.768c12.288 0 16.384 4.096 16.384 16.384v84.787h16.384c1.919 0.371 4.126 0.584 6.382 0.584 15.556 0 28.754-10.095 33.4-24.092l0.071-0.248 29.778-61.972c6.021-12.288 13.271-15.688 33.792-15.688h32.195c11.674 0 14.5 7.66 8.438 17.285zM407.265 219.607h-55.828v-65.987h55.951c0.684-0.050 1.482-0.079 2.287-0.079 8.766 0 16.74 3.396 22.676 8.944l-0.019-0.018c5.275 5.795 8.505 13.532 8.505 22.024 0 0.739-0.024 1.473-0.073 2.2l0.005-0.099c0.036 0.589 0.057 1.278 0.057 1.971 0 8.676-3.219 16.6-8.528 22.643l0.033-0.039c-6.056 5.285-14.030 8.507-22.757 8.507-0.77 0-1.533-0.025-2.291-0.074l0.103 0.005z" />
<glyph unicode="&#xe930;" glyph-name="correcto-check" horiz-adv-x="1443" d="M1402.020 960h-1360.855c-23.364-3.132-41.194-22.94-41.194-46.912 0-1.654 0.085-3.289 0.251-4.9l-0.017 0.202v-920.781c-0.149-1.409-0.234-3.043-0.234-4.698 0-23.972 17.829-43.78 40.951-46.885l0.243-0.027h1360.855c23.364 3.132 41.194 22.94 41.194 46.912 0 1.654-0.085 3.289-0.251 4.9l0.017-0.202v920.781c0.149 1.409 0.234 3.043 0.234 4.698 0 23.972-17.829 43.78-40.951 46.885l-0.243 0.027zM1356.268 32.338h-1276.109v831.488h1276.109zM261.161 623.022c13.505-7.016 29.486-11.13 46.428-11.13s32.924 4.115 46.999 11.399l-0.571-0.269c26.814 14.511 44.721 42.428 44.721 74.527s-17.906 60.015-44.275 74.306l-0.446 0.221c-13.505 7.016-29.486 11.13-46.428 11.13s-32.924-4.115-46.999-11.399l0.571 0.269c-13.528-7.213-24.509-17.63-32.193-30.272l-0.207-0.366c-7.366-12.597-11.716-27.735-11.716-43.889s4.349-31.292 11.941-44.307l-0.225 0.418c7.885-13.012 18.868-23.43 31.956-30.422l0.443-0.216zM262.595 724.972c4.403 7.917 10.71 14.303 18.32 18.676l0.235 0.124c7.655 4.244 16.787 6.741 26.501 6.741s18.846-2.498 26.786-6.886l-0.285 0.145c7.846-4.496 14.153-10.882 18.429-18.555l0.126-0.246c4.254-7.959 6.752-17.409 6.752-27.443s-2.498-19.484-6.907-27.762l0.155 0.319c-4.41-7.912-10.715-14.296-18.32-18.676l-0.235-0.125c-7.656-4.24-16.787-6.736-26.501-6.736s-18.845 2.496-26.787 6.881l0.286-0.145c-7.841 4.503-14.146 10.887-18.429 18.555l-0.126 0.246c-4.247 7.961-6.742 17.411-6.742 27.443s2.494 19.482 6.897 27.763l-0.155-0.32zM562.135 626.463c10.284 6.965 16.954 18.592 16.954 31.777 0 0.594-0.014 1.184-0.040 1.771l0.003-0.083c0.010 0.336 0.015 0.731 0.015 1.127 0 9.33-3.082 17.94-8.284 24.867l0.077-0.107c-5.584 7.082-13.185 12.349-21.932 14.953l-0.31 0.079c13.151 6.683 22.005 20.112 22.005 35.608 0 0.298-0.003 0.594-0.010 0.89l0.001-0.044c0.006 0.238 0.009 0.519 0.009 0.8 0 12.729-6.451 23.95-16.262 30.574l-0.131 0.083c-11.812 7.375-26.157 11.747-41.523 11.747-1.747 0-3.482-0.057-5.201-0.168l0.234 0.012h-80.568v-165.601h85.647c1.616-0.108 3.503-0.169 5.404-0.169 16.127 0 31.223 4.415 44.145 12.103l-0.398-0.219zM465.101 751.514h38.093c0.759 0.052 1.646 0.082 2.539 0.082 6.976 0 13.527-1.822 19.202-5.017l-0.196 0.102c4.478-3.351 7.346-8.642 7.346-14.602s-2.868-11.251-7.298-14.568l-0.047-0.034c-5.462-3.169-12.019-5.040-19.012-5.040-0.891 0-1.775 0.030-2.652 0.090l0.118-0.006h-38.093zM465.101 643.625v40.96h44.728q30.515 0 30.515-20.48c0.023-0.331 0.036-0.717 0.036-1.106 0-5.944-3.051-11.176-7.672-14.214l-0.064-0.040c-5.812-3.176-12.731-5.044-20.086-5.044-0.96 0-1.913 0.032-2.857 0.094l0.128-0.007zM636.764 643.379c-13.010 0.653-24.241 7.712-30.667 18.064l-0.094 0.163-21.299-25.559c6.033-7.694 13.779-13.772 22.684-17.71l0.377-0.149c8.849-3.963 19.179-6.272 30.048-6.272 0.294 0 0.587 0.002 0.88 0.005h-0.045c1.285-0.098 2.783-0.154 4.294-0.154 15.481 0 29.593 5.858 40.241 15.478l-0.052-0.047c9.529 10.907 15.339 25.275 15.339 41 0 1.687-0.067 3.358-0.198 5.011l0.014-0.218v107.356h-96.174v-30.761h58.204v-78.807q0-27.443-23.429-27.443zM864.461 645.468h-90.317v38.339h76.882v29.819h-76.882v35.963h87.040v30.761h-125.051v-165.601h128.123zM929.3 614.748h38.339v134.39h52.961v31.212h-144.425v-31.212h53.002zM1072.66 622.94c13.505-7.016 29.486-11.13 46.428-11.13s32.924 4.115 46.999 11.399l-0.571-0.269c26.814 14.511 44.721 42.428 44.721 74.527s-17.906 60.015-44.275 74.306l-0.446 0.221c-13.505 7.016-29.486 11.13-46.428 11.13s-32.924-4.115-46.999-11.399l0.571 0.269c-13.528-7.213-24.509-17.63-32.193-30.272l-0.207-0.366c-7.366-12.597-11.716-27.735-11.716-43.889s4.349-31.292 11.941-44.307l-0.225 0.418c7.885-13.012 18.868-23.43 31.956-30.422l0.443-0.216zM1074.094 724.89c4.403 7.917 10.71 14.303 18.32 18.676l0.235 0.124c7.655 4.244 16.787 6.741 26.501 6.741s18.846-2.498 26.786-6.886l-0.285 0.145c7.845-4.498 14.152-10.884 18.429-18.555l0.126-0.246c4.254-7.959 6.752-17.409 6.752-27.443s-2.498-19.484-6.907-27.762l0.155 0.319c-4.41-7.912-10.715-14.296-18.32-18.676l-0.235-0.125c-7.656-4.24-16.787-6.736-26.501-6.736s-18.845 2.496-26.787 6.881l0.286-0.145c-7.838 4.507-14.143 10.89-18.429 18.555l-0.126 0.246c-4.247 7.961-6.742 17.411-6.742 27.443s2.494 19.482 6.897 27.763l-0.155-0.32zM333.005 168.776c7.338-7.337 17.475-11.875 28.672-11.875s21.334 4.538 28.672 11.876l239.288 239.288c7.308 7.351 11.825 17.484 11.825 28.672s-4.517 21.32-11.827 28.674l-21.871 22.035c-8.317 8.32-19.808 13.466-32.502 13.466s-24.185-5.146-32.502-13.466l-181.043-181.043-68.485 68.485c-8.308 8.305-19.785 13.442-32.461 13.442s-24.152-5.137-32.461-13.442v0l-18.104-18.268c-8.261-8.313-13.367-19.77-13.367-32.42s5.106-24.107 13.37-32.422l-0.002 0.002zM1097.892 321.802l92.283 92.652c3.278 3.283 5.304 7.815 5.304 12.82s-2.027 9.538-5.305 12.821v0l-54.354 53.985c-3.278 3.287-7.812 5.321-12.82 5.321s-9.542-2.034-12.82-5.321l-92.283-92.611-94.536 94.208c-3.283 3.278-7.815 5.304-12.82 5.304s-9.538-2.027-12.821-5.305v0l-49.807-50.012c-3.278-3.283-5.304-7.815-5.304-12.82s2.027-9.538 5.305-12.821v0l94.536-94.208-92.283-92.652c-3.278-3.283-5.304-7.815-5.304-12.82s2.027-9.538 5.305-12.821v0l54.354-54.149c3.283-3.278 7.815-5.304 12.82-5.304s9.538 2.027 12.821 5.305v0l92.283 92.652 95.15-94.74c3.283-3.278 7.815-5.304 12.82-5.304s9.538 2.027 12.821 5.305v0l49.807 50.012c3.278 3.283 5.304 7.815 5.304 12.82s-2.027 9.538-5.305 12.821v0z" />
<glyph unicode="&#xe931;" glyph-name="criterios" horiz-adv-x="1138" d="M341.32 391.107c-105.162-0.348-193.496-71.983-219.229-169.093l-0.358-1.587h-121.733v-113.787h121.733c25.792-98.885 114.304-170.688 219.587-170.688s193.794 71.804 219.236 169.111l0.35 1.577h576.881v113.787h-576.881c-26.090 98.697-114.425 170.332-219.547 170.68h-0.040zM341.32 49.787c-62.843 0-113.787 50.944-113.787 113.787s50.944 113.787 113.787 113.787c62.843 0 113.787-50.944 113.787-113.787v0c-0.186-62.768-51.019-113.601-113.769-113.787h-0.018zM1016.054 789.32c-25.792 98.885-114.304 170.688-219.587 170.688s-193.794-71.804-219.236-169.111l-0.35-1.577h-576.881v-113.746h576.84c25.792-98.885 114.304-170.688 219.587-170.688s193.794 71.804 219.236 169.111l0.35 1.577h121.733v113.746h-121.692zM796.467 618.639c-62.843 0-113.787 50.944-113.787 113.787s50.944 113.787 113.787 113.787c62.843 0 113.787-50.944 113.787-113.787v0c-0.209-62.765-51.057-113.583-113.812-113.746h-0.016z" />
<glyph unicode="&#xe932;" glyph-name="cuenta-bancaria" horiz-adv-x="1512" d="M86.958 170.906c-51.764 25.247-86.825 77.429-86.958 137.813v0.018q0.655 280.166 1.311 560.333c3.431 26.543 16.159 49.615 34.755 66.266l0.102 0.090c14.717 12.793 33.225 21.589 53.63 24.51l0.561 0.066 1051.935-2.458c55.623-0.331 104.172-30.304 130.684-74.908l0.388-0.705-1040.384 2.417c-74.613-11.402-132.884-69.397-144.583-142.913l-0.128-0.979zM838.943 500.797c-0.267-0.008-0.58-0.013-0.895-0.013-17.373 0-31.457 14.084-31.457 31.457 0 13.582 8.607 25.153 20.665 29.557l0.219 0.070c3.152 1.182 6.794 1.867 10.596 1.867 11.351 0 21.277-6.099 26.681-15.2l0.079-0.143c2.108-4.236 4.139-9.311 5.776-14.56l0.204-0.759h62.218v5.898c-2.29 35.672-24.341 65.688-55.234 79.391l-0.594 0.235c-4.464 1.287-7.674 5.335-7.674 10.133 0 0.5 0.035 0.992 0.102 1.474l-0.006-0.056c0.532 9.339 0 18.76 0 28.672h-63.16c0-9.83-0.451-18.637 0-27.361 0.108-0.592 0.17-1.274 0.17-1.969 0-5.325-3.616-9.806-8.527-11.12l-0.080-0.018c-32.902-15.172-55.327-47.872-55.327-85.81 0-21.333 7.091-41.010 19.044-56.802l-0.171 0.236c16.975-23.415 44.22-38.485 74.988-38.543h0.009c0.525 0.031 1.138 0.049 1.756 0.049 17.441 0 31.58-14.139 31.58-31.58s-14.139-31.58-31.58-31.58c-15.029 0-27.606 10.498-30.797 24.561l-0.040 0.212-1.843 6.267h-62.259c-0.169-1.554-0.265-3.357-0.265-5.182 0-0.497 0.007-0.992 0.021-1.485l-0.002 0.073c2.476-35.267 24.277-64.902 54.789-78.571l0.589-0.236c4.813-1.402 8.271-5.773 8.271-10.952 0-0.471-0.029-0.935-0.084-1.391l0.005 0.055c-0.573-9.298 0-18.637 0-27.853h63.119v36.045c4.342 2.13 8.192 3.85 11.878 5.734 31.036 15.953 51.899 47.753 51.899 84.425 0 25.933-10.433 49.43-27.332 66.521l0.009-0.009c-16.927 17.642-40.682 28.62-67.001 28.672h-0.010zM1332.347 794.767h-988.447c-99.145-0.325-179.419-80.657-179.651-179.792v-499.079c0.209-99.247 80.608-179.646 179.835-179.855h988.467c99.247 0.209 179.646 80.608 179.855 179.835v499.077c-0.209 99.247-80.608 179.646-179.835 179.855h-0.020zM1332.552-1.249h-988.651c-54.317 0.108-99.955 37.142-113.154 87.329l-0.183 0.817h1215.078c-13.424-50.939-59.026-87.91-113.283-88.023h-0.013zM1449.451 206.336h-1222.656v408.617c0.093 64.638 52.467 117.011 117.096 117.105h988.456c64.638-0.093 117.011-52.467 117.105-117.096v-0.009z" />
<glyph unicode="&#xe933;" glyph-name="derecho-escudo" horiz-adv-x="838" d="M418.848 960l-418.848-186.305v-279.232c0-258.345 178.728-499.652 418.848-558.464 240.12 58.648 418.848 300.201 418.848 558.464v279.232zM771.635 487.255c0-217.553-150.51-420.977-352.787-470.369-202.277 49.392-352.787 252.775-352.787 470.369v235.205l352.787 156.776 352.787-156.776zM241.717 486.805c-7.663 7.251-18.034 11.71-29.447 11.71s-21.784-4.458-29.467-11.728l0.020 0.019-11.508-10.894c-7.846-7.475-12.726-18.004-12.726-29.672 0-10.955 4.301-20.906 11.308-28.255l-0.016 0.016c0.451-0.491 0.942-0.983 1.433-1.433l125.978-120.94c7.67-7.34 18.092-11.858 29.57-11.858s21.9 4.518 29.585 11.873l-0.016-0.015 315.887 303.068c4.301 4.142 6.973 9.95 6.973 16.382 0 6.127-2.424 11.687-6.365 15.775l-0.607 0.607-39.071 37.474c-4.082 3.913-9.633 6.323-15.747 6.323s-11.665-2.409-15.755-6.33l0.008 0.008-274.972-263.956z" />
<glyph unicode="&#xe934;" glyph-name="derecho-items" horiz-adv-x="875" d="M279.91 159.386v0c-132.532 77.68-220.324 219.083-221.183 381.061l-0.001 0.123v208.64l312.934 139.264 312.883-139.264v-208.64c-0.002-24.487-2.088-48.485-6.089-71.828l0.355 2.503c-0.107-0.589-0.169-1.267-0.169-1.96 0-3.91 1.956-7.362 4.944-9.433l0.038-0.025c14.455-9.934 27.108-20.489 38.705-32.1l0.003-0.003c0.752-0.83 1.835-1.35 3.039-1.35 1.997 0 3.66 1.429 4.023 3.321l0.004 0.026c8.737 35.17 13.774 75.557 13.824 117.113v247.79l-371.61 165.376-371.61-165.325v-247.757c0.992-196.897 110.186-368.063 271.123-457.179l2.694-1.368c0.805-0.424 1.758-0.672 2.77-0.672 3.249 0 5.899 2.565 6.036 5.78v60.684c0.004 0.081 0.006 0.175 0.006 0.27 0 2.043-1.078 3.834-2.696 4.836l-0.024 0.014zM355.738 485.683c34.152 29.378 78.341 47.953 126.806 50.008l0.426 0.014c3.766 0.165 7.145 1.695 9.683 4.102l-0.007-0.006 103.834 99.635c3.809 3.722 6.172 8.912 6.172 14.653 0 5.38-2.074 10.275-5.467 13.93l0.012-0.013-0.614 0.614-34.662 33.229c-3.62 3.482-8.548 5.627-13.978 5.627s-10.358-2.145-13.984-5.634l0.007 0.006-233.472-224.102c-2.703-2.607-6.386-4.213-10.445-4.213s-7.742 1.606-10.449 4.218l-65.019 62.408c-6.805 6.43-16.010 10.382-26.138 10.382s-19.333-3.952-26.156-10.399l-10.222-9.66c-6.919-6.621-11.22-15.93-11.22-26.243 0-9.675 3.785-18.466 9.955-24.973l-0.015 0.016 1.28-1.28 112.23-107.981c2.635-2.297 6.104-3.698 9.901-3.698 7.073 0 13.011 4.862 14.653 11.427l0.022 0.104c11.066 43.263 34.504 79.994 66.283 107.288l0.277 0.232zM714.138 144.538h-25.6l-8.704 8.704c31.207 36.286 50.209 83.85 50.209 135.852 0 115.37-93.526 208.896-208.896 208.896s-208.896-93.526-208.896-208.896c0-115.37 93.526-208.896 208.896-208.896 52.002 0 99.566 19.002 136.128 50.44l-0.276-0.232 8.704-8.704v-25.6l160.768-160.768 48.23 48.23zM521.216 144.538c-79.804 0.179-144.428 64.914-144.428 144.742 0 78.028 61.742 141.635 139.036 144.632l0.272 0.008h6.656c78.036-2.432 140.371-66.274 140.371-144.676 0-78.798-62.967-142.889-141.329-144.703l-0.169-0.003z" />
<glyph unicode="&#xe935;" glyph-name="derecho-lupa-check" horiz-adv-x="875" d="M279.91 159.386v0c-132.532 77.68-220.324 219.083-221.183 381.061l-0.001 0.123v208.64l312.934 139.264 312.883-139.264v-208.64c-0.002-24.487-2.088-48.485-6.089-71.828l0.355 2.503c-0.107-0.589-0.169-1.267-0.169-1.96 0-3.91 1.956-7.362 4.944-9.433l0.038-0.025c14.455-9.934 27.108-20.489 38.705-32.1l0.003-0.003c0.752-0.83 1.835-1.35 3.039-1.35 1.997 0 3.66 1.429 4.023 3.321l0.004 0.026c8.737 35.17 13.774 75.557 13.824 117.113v247.79l-371.61 165.376-371.61-165.325v-247.757c0.992-196.897 110.186-368.063 271.123-457.179l2.694-1.368c0.805-0.424 1.758-0.672 2.77-0.672 3.249 0 5.899 2.565 6.036 5.78v60.684c0.004 0.081 0.006 0.175 0.006 0.27 0 2.043-1.078 3.834-2.696 4.836l-0.024 0.014zM355.738 485.683c34.152 29.378 78.341 47.953 126.806 50.008l0.426 0.014c3.766 0.165 7.145 1.695 9.683 4.102l-0.007-0.006 103.834 99.635c3.809 3.722 6.172 8.912 6.172 14.653 0 5.38-2.074 10.275-5.467 13.93l0.012-0.013-0.614 0.614-34.662 33.229c-3.62 3.482-8.548 5.627-13.978 5.627s-10.358-2.145-13.984-5.634l0.007 0.006-233.472-224.102c-2.703-2.607-6.386-4.213-10.445-4.213s-7.742 1.606-10.449 4.218l-65.019 62.408c-6.805 6.43-16.010 10.382-26.138 10.382s-19.333-3.952-26.156-10.399l-10.222-9.66c-6.919-6.621-11.22-15.93-11.22-26.243 0-9.675 3.785-18.466 9.955-24.973l-0.015 0.016 1.28-1.28 112.23-107.981c2.635-2.297 6.104-3.698 9.901-3.698 7.073 0 13.011 4.862 14.653 11.427l0.022 0.104c11.066 43.263 34.504 79.994 66.283 107.288l0.277 0.232zM714.138 144.538h-25.6l-8.704 8.704c31.207 36.286 50.209 83.85 50.209 135.852 0 115.37-93.526 208.896-208.896 208.896s-208.896-93.526-208.896-208.896c0-115.37 93.526-208.896 208.896-208.896 52.002 0 99.566 19.002 136.128 50.44l-0.276-0.232 8.704-8.704v-25.6l160.768-160.768 48.23 48.23zM521.216 144.538c-79.804 0.179-144.428 64.914-144.428 144.742 0 78.028 61.742 141.635 139.036 144.632l0.272 0.008h6.656c78.036-2.432 140.371-66.274 140.371-144.676 0-78.798-62.967-142.889-141.329-144.703l-0.169-0.003z" />
<glyph unicode="&#xe936;" glyph-name="derecho-lupa-escudo" horiz-adv-x="875" d="M279.932 159.364v0c-132.534 77.682-220.329 219.086-221.192 381.065l-0.001 0.124v208.659l312.947 139.27 312.906-139.27v-208.618c-0.003-24.482-2.089-48.473-6.090-71.811l0.355 2.504c-0.11-0.596-0.172-1.281-0.172-1.982 0-3.903 1.949-7.35 4.927-9.422l0.038-0.025c14.456-9.937 27.109-20.496 38.706-32.111l0.003-0.003c0.753-0.84 1.842-1.367 3.054-1.367 2.007 0 3.677 1.443 4.028 3.349l0.004 0.025c8.731 35.174 13.761 75.564 13.804 117.122v247.764l-371.645 165.362-371.604-165.321v-247.736c1.005-196.889 110.2-368.045 271.133-457.156l2.695-1.369c0.808-0.43 1.767-0.683 2.785-0.683 3.321 0 6.014 2.688 6.021 6.007v60.665c0.001 0.033 0.001 0.072 0.001 0.11 0 2.038-1.071 3.826-2.681 4.832l-0.024 0.014zM355.752 485.746c34.155 29.367 78.34 47.937 126.799 50l0.428 0.014c3.762 0.167 7.138 1.696 9.674 4.102l-0.007-0.006 103.838 99.66c3.904 3.697 6.333 8.916 6.333 14.704 0 5.421-2.132 10.345-5.603 13.977l0.007-0.008-0.614 0.614-34.654 33.22c-3.617 3.481-8.542 5.626-13.968 5.626s-10.351-2.144-13.974-5.632l0.006 0.006-233.481-224.101c-2.705-2.603-6.388-4.206-10.445-4.206s-7.74 1.603-10.45 4.21l0.005-0.005-64.965 62.344c-6.805 6.427-16.008 10.378-26.134 10.378s-19.329-3.951-26.152-10.395l-10.222-9.65c-6.957-6.631-11.284-15.969-11.284-26.318 0-9.717 3.815-18.543 10.028-25.063l-0.014 0.015 1.27-1.27 112.235-107.729c2.636-2.314 6.114-3.725 9.921-3.725 7.074 0 13.010 4.873 14.634 11.445l0.022 0.104c11.061 43.376 34.565 80.202 66.446 107.536l0.28 0.234zM714.412 144.986h-25.396l-8.684 8.684c31.214 36.289 50.22 83.859 50.22 135.869 0 115.375-93.53 208.904-208.904 208.904s-208.904-93.53-208.904-208.904c0-115.375 93.53-208.904 208.904-208.904 52.009 0 99.58 19.006 136.144 50.452l-0.276-0.232 8.684-8.684v-25.396l160.652-160.815 48.212 48.253zM521.483 144.986c-0.725-0.013-1.58-0.021-2.437-0.021-79.925 0-144.718 64.792-144.718 144.718 0 79.068 63.41 143.326 142.152 144.695l0.128 0.002c1.638 0 3.236 0 4.874 0h1.147c78.651-1.648 141.778-65.796 141.778-144.688 0-79.295-63.774-143.695-142.829-144.705l-0.096-0.001z" />
<glyph unicode="&#xe937;" glyph-name="descarga-multiple" horiz-adv-x="683" d="M195.052 960v-292.577h-195.052l341.32-341.32 341.32 341.32h-195.215v292.577h-292.372zM0 228.577v-97.526h682.68v97.526h-682.68zM0 33.526v-97.526h682.68v97.526z" />
<glyph unicode="&#xe938;" glyph-name="descargar" horiz-adv-x="1205" d="M0 357.615h120.491v-301.193h963.72v301.193h120.491v-301.193c0-0.102 0-0.222 0-0.342 0-66.319-53.762-120.081-120.081-120.081-0.144 0-0.288 0-0.432 0.001h-963.698c-0.020 0-0.044 0-0.068 0-66.507 0-120.422 53.915-120.422 120.422 0 0.024 0 0.048 0 0.072v-0.004 301.124zM602.385 176.913l334.507 328.909-85.743 84.924-188.553-187.938v557.193h-120.491v-557.193l-187.938 187.938-85.538-85.538z" />
<glyph unicode="&#xe939;" glyph-name="detalle-lista" d="M-0.154 960h1024v-146.33h-1024v146.33zM-0.154 374.835v146.278h1024v-146.278h-1024zM-0.154-64v146.278h1024v-146.278h-1024z" />
<glyph unicode="&#xe93a;" glyph-name="dinero-a-tiempo" horiz-adv-x="1162" d="M833.004 75.756c3.193-3.95 5.126-9.034 5.126-14.569 0-7.348-3.406-13.9-8.726-18.164l-0.046-0.036c-3.195-2.499-5.898-4.628-8.765-6.676l-15.401-10.977c-3.768-2.621-7.414-4.915-10.936-7.168l-5.366-3.441h-0.246l-2.54-1.638c-1.884-1.188-3.809-2.458-5.939-3.686l-7.946-4.588c-9.339-5.612-18.964-10.486-28.262-15.196l-5.775-2.949-0.614-0.287-21.504-9.708-0.614-0.246-5.284-2.089c-2.523-1.031-5.45-1.632-8.517-1.638h-0.249c-0.021 0-0.046 0-0.071 0-9.791 0-18.162 6.080-21.543 14.671l-0.054 0.157-11.346 29.123c-1 2.501-1.58 5.401-1.58 8.435 0 9.783 6.028 18.158 14.572 21.614l0.156 0.056 3.645 1.434 18.76 8.479 6.021 3.072c8.192 4.096 15.565 7.905 22.815 12.288l7.66 4.424 4.096 2.458 2.662 1.72 5.284 3.4c2.99 1.884 5.816 3.686 8.52 5.571l13.722 9.748c2.13 1.516 4.096 3.195 6.226 4.751 3.935 3.131 8.974 5.028 14.457 5.038h0.002c0.015 0 0.033 0 0.051 0 7.327 0 13.859-3.405 18.099-8.719l0.036-0.047zM631.235 5.059v0c-2.434 10.447-11.665 18.112-22.687 18.112-1.831 0-3.613-0.212-5.323-0.612l0.157 0.031c-1.516-0.328-3.072-0.573-4.628-0.86l-3.072-0.532-6.226-1.106c-3.441-0.655-6.717-1.229-9.953-1.72l-20.48-2.621-20.972-1.597h-7.66l-16.63-0.369h-8.192c-5.571 0-10.977 0.246-16.384 0.573h-1.352c-12.207-0.049-22.201-9.459-23.178-21.421l-0.005-0.083-2.376-31.171v-0.369c-0.025-0.404-0.039-0.877-0.039-1.353 0-12.359 9.636-22.466 21.805-23.22l0.066-0.003c7.086-0.41 14.172-0.737 21.053-0.737h8.438c4.301 0 8.602 0.287 12.902 0.287h9.38c2.212 0 4.506 0.287 6.922 0.287l23.511 1.802h0.696l4.71 0.573 18.964 2.417c4.506 0.655 8.602 1.434 12.698 2.171l9.503 1.679c2.253 0.41 4.506 0.778 6.799 1.311h0.983c10.407 2.482 18.026 11.701 18.026 22.7 0 1.827-0.21 3.604-0.608 5.31l0.031-0.157zM409.6 26.399l-4.096 0.942-19.743 5.612-6.758 2.253c-8.192 2.785-16.384 5.407-23.962 8.643l-0.614 0.246c-7.946 2.908-15.606 6.472-23.798 10.199l-6.144 2.785-18.268 9.38-3.482 2.007c-3.327 1.944-7.324 3.093-11.59 3.093-8.541 0-16.007-4.603-20.054-11.463l-0.059-0.109-15.688-26.993c-1.943-3.326-3.090-7.322-3.090-11.585 0-8.573 4.637-16.063 11.54-20.099l0.11-0.059 4.874-2.785 0.573-0.287 4.096-2.212 16.794-8.602 0.614-0.287 5.857-2.662c9.462-4.465 19.538-8.561 29.409-12.657s19.907-7.414 29.614-10.65l6.636-2.212h0.655l22.692-6.431h0.696l5.489-1.27c1.572-0.383 3.379-0.606 5.237-0.614h0.006c0.094-0.001 0.204-0.002 0.314-0.002 10.922 0 20.078 7.567 22.509 17.744l0.032 0.158 6.922 30.474c0.321 1.449 0.505 3.114 0.505 4.821 0 10.921-7.524 20.084-17.671 22.588l-0.16 0.033zM236.339 114.053l-6.472 5.612-4.096 3.645c-2.826 2.417-5.489 4.71-7.823 7.045l-12.288 11.756-11.428 11.96c-12.451 13.514-24.383 28.123-35.419 43.422l-0.953 1.388c-4.295 5.973-11.22 9.819-19.045 9.83h-0.002c-4.888-0.017-9.415-1.547-13.142-4.146l0.075 0.050-25.846-17.572c-5.062-3.499-8.647-8.827-9.808-15.010l-0.023-0.146c-0.215-1.179-0.337-2.536-0.337-3.922 0-5.103 1.663-9.817 4.478-13.631l-0.044 0.063c14.197-19.831 28.361-37.193 43.517-53.627l-0.345 0.379 13.189-13.844 0.492-0.492 13.517-12.902c3.482-3.441 7.004-6.472 10.445-9.421l4.096-3.686 7.25-6.267 0.696-0.573c4.015-3.34 9.224-5.367 14.908-5.367 7.326 0 13.866 3.369 18.154 8.642l0.034 0.043 19.497 24.576c3.183 3.936 5.11 9.003 5.11 14.519 0 7.067-3.162 13.396-8.149 17.648l-0.032 0.027zM117.309 268.39c-6.716 14.333-13.664 32.216-19.539 50.58l-0.941 3.406c-4.847 15.206-9.428 34.163-12.795 53.537l-0.395 2.742c-1.91 11.088-11.455 19.418-22.945 19.418-1.197 0-2.373-0.090-3.521-0.265l0.129 0.016-30.925-4.547c-6.38-0.99-11.812-4.432-15.396-9.315l-0.046-0.065c-2.768-3.754-4.431-8.472-4.431-13.578 0-1.382 0.122-2.736 0.355-4.051l-0.020 0.139c4.431-26.255 9.867-48.802 16.666-70.75l-1.019 3.821c8.143-25.749 16.477-46.95 26.018-67.476l-1.442 3.455c3.768-8.065 11.81-13.554 21.135-13.558v0c3.683 0.014 7.161 0.874 10.255 2.396l-0.138-0.061 28.14 13.599c7.864 3.809 13.192 11.729 13.192 20.894 0 3.52-0.786 6.857-2.192 9.845l0.060-0.141zM23.306 436.367h31.375c12.477 0.013 22.645 9.88 23.141 22.237l0.001 0.045c0.648 40.938 6.889 80.165 17.988 117.295l-0.785-3.058c0.59 1.946 0.93 4.183 0.93 6.499 0 10.388-6.832 19.18-16.248 22.128l-0.164 0.044-29.86 9.257h-0.492c-1.897 0.557-4.077 0.878-6.332 0.878-10.535 0-19.434-7.002-22.298-16.606l-0.042-0.165c-12.253-40.306-19.68-86.714-20.474-134.736l-0.006-0.432c-0.005-0.172-0.007-0.374-0.007-0.576 0-6.287 2.52-11.984 6.605-16.139l-0.003 0.003c4.24-4.331 10.139-7.023 16.667-7.045h0.004zM60.17 638.3c6.262-3.519 13.726-7.006 21.453-9.96l1.198-0.402c2.766-1.064 5.965-1.68 9.309-1.68 10.343 0 19.309 5.898 23.717 14.514l0.070 0.15 0.778 1.475c76.358 145.773 226.577 243.53 399.63 243.53 98.301 0 189.234-31.543 263.23-85.060l-1.315 0.905-14.336-14.336c-4.881-4.89-7.899-11.641-7.899-19.096 0-14.683 11.706-26.632 26.295-27.024l0.036-0.001 83.272-1.966c14.737 0.251 26.587 12.257 26.587 27.030 0 0.16-0.001 0.319-0.004 0.478v-0.024l-1.393 82.575c-0.228 14.732-12.224 26.588-26.99 26.588-7.476 0-14.242-3.039-19.13-7.95l-13.477-13.477c-86.591 65.734-196.183 105.303-315.016 105.303-202.741 0-378.581-115.176-465.659-283.666l-1.375-2.926c-1.756-3.437-2.784-7.496-2.784-11.796 0-9.927 5.483-18.573 13.586-23.074l0.135-0.069zM626.688 468.48c-24.861 25.81-59.704 41.855-98.295 41.902h-0.009c-0.381-0.011-0.828-0.018-1.278-0.018-25.495 0-46.162 20.667-46.162 46.162 0 19.931 12.631 36.912 30.325 43.374l0.321 0.102c4.63 1.739 9.98 2.745 15.566 2.745 16.664 0 31.236-8.957 39.164-22.318l0.116-0.21c3.038-6.201 5.961-13.642 8.309-21.333l0.292-1.113h91.341v8.602c-3.365 52.347-35.718 96.394-81.048 116.514l-0.872 0.345c-6.495 1.938-11.149 7.857-11.149 14.864 0 0.709 0.048 1.407 0.14 2.091l-0.009-0.080c0.819 13.763 0 27.525 0 41.861h-92.979c0-14.459-0.696-27.361 0-40.141 0.156-0.863 0.245-1.857 0.245-2.871 0-7.784-5.257-14.34-12.415-16.311l-0.119-0.028c-48.239-22.315-81.105-70.299-81.105-125.96 0-31.269 10.373-60.115 27.865-83.286l-0.253 0.35c24.924-34.367 64.921-56.483 110.087-56.566h0.013c0.741 0.042 1.609 0.066 2.482 0.066 25.608 0 46.367-20.759 46.367-46.367s-20.759-46.367-46.367-46.367c-22.012 0-40.442 15.339-45.183 35.912l-0.061 0.312c-0.901 2.99-1.761 5.939-2.703 9.175h-91.095c-0.254-2.281-0.399-4.926-0.399-7.605 0-0.739 0.011-1.476 0.033-2.21l-0.003 0.108c3.65-51.764 35.653-95.259 80.441-115.325l0.865-0.346c6.94-2.007 11.929-8.304 11.929-15.767 0-0.839-0.063-1.664-0.185-2.469l0.011 0.091c-0.86-13.64 0-27.361 0-40.96h92.529v52.797c6.431 3.113 11.96 5.652 17.244 8.602 45.556 23.431 76.178 70.117 76.178 123.955 0 38.107-15.342 72.631-40.186 97.733l0.012-0.012zM1141.883 276.787h-53.248c-8.53 0.005-15.84 5.225-18.915 12.644l-0.050 0.136-21.176 52.306h-141.804l-21.176-52.306c-3.125-7.555-10.434-12.774-18.964-12.78h-51.446c-11.271 0.052-20.388 9.201-20.388 20.48 0 2.963 0.629 5.78 1.762 8.322l-0.052-0.13 127.836 289.997c4.445 9.738 14.098 16.384 25.303 16.384 0.033 0 0.065 0 0.098 0h57.339c0.015 0 0.034 0 0.052 0 11.205 0 20.858-6.646 25.232-16.211l0.071-0.173 128.369-289.833c1.081-2.413 1.71-5.229 1.71-8.192 0-11.278-9.117-20.427-20.383-20.48h-0.005zM1020.764 412.119l-43.090 107.233-43.090-107.233z" />
<glyph unicode="&#xe93b;" glyph-name="dinero-aumentar-mas" horiz-adv-x="1361" d="M1361.388 457.789v-91.423c0-12.985-10.526-23.511-23.511-23.511v0h-173.916v-169.288c0-12.985-10.526-23.511-23.511-23.511v0h-99.369c-12.985 0-23.511 10.526-23.511 23.511v169.288h-172.81c-12.985 0-23.511 10.526-23.511 23.511v0 91.423c0 12.985 10.526 23.511 23.511 23.511v0h172.81v169.37c0 12.985 10.526 23.511 23.511 23.511v0h99.369c12.985 0 23.511-10.526 23.511-23.511v0-169.411h173.957c12.985 0 23.511-10.526 23.511-23.511v0zM916.521 173.568c-0.001-0.196-0.002-0.427-0.002-0.658 0-11.477 1.859-22.52 5.293-32.844l-0.212 0.734c-94.395-125.013-242.724-204.971-409.728-204.971-282.77 0-512 229.23-512 512s229.23 512 512 512c181.189 0 340.395-94.117 431.398-236.129l1.227-2.046c-17.406-18.546-28.099-43.573-28.099-71.097 0-0.018 0-0.035 0-0.053v0.003-88.474h-91.791c-57.634-0.070-104.337-46.773-104.407-104.4v-91.43c0.070-57.634 46.773-104.337 104.4-104.407h91.921zM623.821 453.325c-27.942 29.006-67.119 47.022-110.503 47.022-0.031 0-0.062 0-0.093 0h0.005c-0.441-0.013-0.959-0.021-1.48-0.021-28.616 0-51.814 23.198-51.814 51.814 0 22.376 14.184 41.44 34.052 48.69l0.36 0.115c5.169 1.93 11.142 3.046 17.376 3.046 18.687 0 35.031-10.036 43.935-25.011l0.129-0.235c3.484-6.982 6.835-15.341 9.536-23.986l0.335-1.245h102.4c0 4.096 0.246 6.922 0 9.748-3.833 58.735-40.171 108.137-91.057 130.685l-0.98 0.387c-7.255 2.193-12.448 8.818-12.448 16.656 0 0.829 0.058 1.644 0.17 2.442l-0.011-0.092c0.901 15.401 0.246 30.925 0.246 46.981h-104.12c0-16.384-0.737-30.72 0.246-45.056 0.174-0.965 0.273-2.075 0.273-3.209 0-8.773-5.944-16.158-14.025-18.346l-0.133-0.031c-54.175-25.041-91.088-78.918-91.088-141.417 0-35.128 11.662-67.532 31.324-93.553l-0.283 0.391c27.971-38.584 72.862-63.419 123.559-63.529h0.017c0.61 0.026 1.326 0.040 2.045 0.040 28.775 0 52.101-23.326 52.101-52.101 0-26.362-19.578-48.151-44.988-51.62l-0.27-0.030c-1.7-0.195-3.67-0.306-5.666-0.306-24.803 0-45.593 17.183-51.115 40.294l-0.072 0.358c-0.983 3.318-1.966 6.636-3.031 10.322h-102.687c-0.284-2.541-0.446-5.486-0.446-8.469 0-0.853 0.013-1.703 0.040-2.55l-0.003 0.124c4.092-58.106 40.015-106.931 90.288-129.454l0.971-0.389c9.953-4.792 13.885-9.462 13.189-20.48-0.983-15.319-0.246-30.72-0.246-45.875h104.038v59.597c7.209 3.482 13.435 6.349 19.538 9.462 51.090 26.31 85.426 78.687 85.426 139.083 0 42.745-17.199 81.472-45.053 109.64l0.014-0.014z" />
<glyph unicode="&#xe93c;" glyph-name="dinero-egreso-cartera" horiz-adv-x="878" d="M877.486 412.815c-0.129 10.025-1.617 19.651-4.286 28.773l0.19-0.757c-9.721 34.774-35.265 62.084-68.174 74.059l-0.761 0.242c0 14.623 0 29.041 0 43.5-0.275 59.681-48.419 108.026-107.996 108.625h-0.057c-24.576 0-48.742 0-73.114 0-0.517 0.026-1.122 0.041-1.731 0.041-20.201 0-36.577-16.376-36.577-36.577s16.376-36.577 36.577-36.577c0.609 0 1.214 0.015 1.815 0.044l-0.085-0.003c23.224 0 46.449 0.205 69.632 0 0.395 0.015 0.858 0.024 1.323 0.024 20.518 0 37.151-16.633 37.151-37.151 0-0.34-0.005-0.678-0.014-1.015l0.001 0.050c0.287-11.018 0-22.077 0-34.57-3.277 0-5.489-0.41-7.7-0.41q-305.644 0-611.287 0c-0.755-0.055-1.636-0.087-2.524-0.087-20.224 0-36.618 16.395-36.618 36.618s16.395 36.618 36.618 36.618c1.033 0 2.055-0.043 3.066-0.127l-0.132 0.009c23.224 0 46.449 0 69.632 0 0.319-0.010 0.695-0.016 1.071-0.016 20.178 0 36.536 16.358 36.536 36.536s-16.358 36.536-36.536 36.536c-0.478 0-0.953-0.009-1.426-0.027l0.068 0.002c-24.003 0-48.005 0-71.967 0-0.416 0.006-0.906 0.009-1.398 0.009-60.106 0-108.831-48.725-108.831-108.831 0-0.363 0.002-0.726 0.005-1.088v0.055q0-255.918 0-512c-0.001-0.207-0.002-0.452-0.002-0.698 0-60.106 48.725-108.831 108.831-108.831 0.202 0 0.405 0.001 0.607 0.002h-0.031q329.646 0 659.456 0c0.036 0 0.080 0 0.123 0 60.060 0 108.749 48.688 108.749 108.749 0 0.043 0 0.086 0 0.13v-0.007q0.205 183.91 0 367.862zM804.659 46.797c0.005-0.232 0.008-0.506 0.008-0.781 0-20.495-16.615-37.11-37.11-37.11-0.147 0-0.294 0.001-0.44 0.003h0.022c-2.662 0-5.325 0-8.192 0h-639.959c-32.358 0-45.875 13.435-45.916 45.629q0 193.085 0 386.13v9.748c22.241-0.942 43.008-2.621 63.816-2.662q310.804-0.287 621.609 0c32.399 0 45.998-13.476 45.998-45.507 0-20.89 0-41.779 0-64.184h-12.78c-32.358 0-64.758 0-97.116 0-0.061 0-0.133 0-0.205 0-60.558 0-109.65-49.092-109.65-109.65 0-60.486 48.975-109.533 109.434-109.65h0.011c36.168 0 72.335 0 109.199 0 0.464-2.225 0.828-4.905 1.014-7.634l0.010-0.189c0-21.34 0.369-42.639 0-63.98zM804.045 265.032v-72.335c-3.031-0.287-5.898-0.778-8.806-0.778-31.908 0-63.857 0-95.764 0-1.481-0.211-3.191-0.331-4.93-0.331-20.359 0-36.864 16.505-36.864 36.864s16.505 36.864 36.864 36.864c1.608 0 3.192-0.103 4.745-0.303l-0.184 0.019c34.57 0 69.1 0 104.94 0zM261.12 832.123c2.455 3.603 5.153 6.743 8.16 9.555l0.032 0.029q52.019 52.142 104.161 104.161c6.811 8.591 17.247 14.053 28.959 14.053s22.148-5.461 28.9-13.977l0.058-0.076q52.183-51.978 104.161-104.161c6.739-6.687 10.91-15.954 10.91-26.194 0-20.379-16.52-36.899-36.899-36.899-10.139 0-19.322 4.089-25.991 10.708l0.002-0.002c-14.090 13.885-28.017 27.935-42.066 41.861 0 0-0.655 0-2.54 0.369v-12.001q0-94.781 0-189.563c0-0.066 0.001-0.144 0.001-0.221 0-17.927-12.926-32.835-29.966-35.913l-0.222-0.033c-1.845-0.327-3.969-0.514-6.137-0.514-16.69 0-30.789 11.091-35.329 26.304l-0.067 0.261c-0.873 3.628-1.373 7.793-1.373 12.075 0 0.911 0.023 1.816 0.067 2.715l-0.005-0.126c0 65.536 0 131.072 0 199.434-17.326-17.285-32.276-32.768-47.923-47.718-6.515-6.372-15.439-10.303-25.281-10.303-9.033 0-17.292 3.311-23.63 8.786l0.046-0.039c-8.149 6.765-13.3 16.898-13.3 28.234 0 7.105 2.024 13.737 5.526 19.352l-0.090-0.155zM490.086 222.269c5.322-10.256 8.443-22.391 8.443-35.255 0-30.098-17.086-56.206-42.088-69.152l-0.434-0.204c-3.072-1.556-6.185-2.99-9.748-4.71v-29.614h-52.019v-0.287c0 7.537-0.492 15.237 0 22.856 0.328 5.407-1.638 7.741-6.595 10.158-25.581 11.436-43.505 35.826-45.493 64.601l-0.013 0.238c-0.011 0.358-0.018 0.779-0.018 1.201 0 1.496 0.081 2.973 0.238 4.427l-0.016-0.18h51.077l1.516-5.202c2.553-12.087 13.131-21.028 25.796-21.028 14.546 0 26.337 11.792 26.337 26.337s-11.792 26.337-26.337 26.337c-0.66 0-1.315-0.024-1.962-0.072l0.087 0.005c-25.218 0.109-47.526 12.474-61.288 31.442l-0.152 0.22c-9.665 12.781-15.481 28.942-15.481 46.46 0 31.166 18.408 58.034 44.944 70.322l0.479 0.199c4.096 1.1 7.062 4.78 7.062 9.152 0 0.572-0.051 1.133-0.148 1.677l0.009-0.057c-0.369 7.168 0 14.377 0 22.487h52.019c0-7.946 0.451-15.565 0-23.347-0.052-0.355-0.081-0.765-0.081-1.182 0-3.942 2.639-7.267 6.246-8.306l0.061-0.015c25.907-11.465 44.039-36.18 45.864-65.316l0.011-0.22v-4.874h-51.118c-1.509 4.927-3.178 9.093-5.143 13.087l0.228-0.512c-4.505 7.593-12.66 12.603-21.985 12.603-3.135 0-6.137-0.566-8.911-1.602l0.176 0.058c-9.874-3.812-16.751-13.228-16.751-24.249 0-14.319 11.608-25.928 25.928-25.928 0.086 0 0.172 0 0.257 0.001h-0.013c0.013 0 0.028 0 0.044 0 21.585 0 41.081-8.943 54.986-23.326l0.021-0.022c5.481-5.552 10.138-11.936 13.763-18.94l0.204-0.434z" />
<glyph unicode="&#xe93d;" glyph-name="dinero-flecha" horiz-adv-x="855" d="M844.882 628.224l-274.637-274.637c-6.158-6.19-14.683-10.021-24.103-10.021-8.922 0-17.040 3.436-23.105 9.058l0.022-0.020-46.326 42.598-1.393 1.352c-5.952 6.122-9.621 14.49-9.621 23.715 0 9.551 3.934 18.183 10.27 24.365l0.007 0.007 146.432 143.36h-588.39c0 0-0.001 0-0.001 0-18.712 0-33.898 15.099-34.037 33.779v60.675c0 18.799 15.239 34.038 34.038 34.038v0h588.554l-142.541 142.541c-6.157 6.159-9.965 14.667-9.965 24.064s3.808 17.905 9.965 24.064v0l42.967 42.885c6.153 6.155 14.653 9.962 24.044 9.962s17.891-3.807 24.043-9.961l273.736-273.777c6.167-6.155 9.982-14.664 9.982-24.064s-3.815-17.909-9.982-24.063l-0.001-0.001zM281.805 277.565c-0.39-0.011-0.849-0.018-1.309-0.018-26.807 0-48.538 21.731-48.538 48.538 0 20.93 13.247 38.766 31.815 45.58l0.337 0.108c4.864 1.823 10.485 2.879 16.352 2.879 17.526 0 32.853-9.416 41.198-23.466l0.121-0.221c3.257-6.541 6.386-14.372 8.904-22.471l0.312-1.163h96.051c0 3.768 0.205 6.472 0 9.134-3.515 55.019-37.485 101.327-85.101 122.516l-0.915 0.364c-6.878 2.048-11.807 8.314-11.807 15.732 0 0.735 0.048 1.459 0.142 2.169l-0.009-0.083c0.86 14.418 0.246 28.959 0.246 43.991h-97.935c0-15.196-0.696-28.672 0.205-42.23 0.166-0.912 0.261-1.962 0.261-3.034 0-8.222-5.581-15.14-13.162-17.172l-0.124-0.028c-50.682-23.481-85.205-73.915-85.205-132.413 0-32.865 10.897-63.184 29.275-87.543l-0.267 0.369c26.214-36.194 68.318-59.485 115.865-59.556h0.011c0.694 0.035 1.507 0.055 2.324 0.055 26.942 0 48.783-21.841 48.783-48.783 0-24.874-18.617-45.4-42.677-48.405l-0.239-0.024c-1.598-0.184-3.451-0.29-5.327-0.29-23.269 0-42.762 16.17-47.855 37.886l-0.066 0.333c-0.942 3.113-1.843 6.226-2.867 9.667h-96.215c-0.279-2.44-0.438-5.267-0.438-8.132 0-0.727 0.010-1.451 0.031-2.173l-0.002 0.106c3.799-54.436 37.462-100.182 84.574-121.247l0.909-0.363c9.298-4.506 13.025-8.847 12.288-19.046-0.901-14.336-0.246-28.672-0.246-42.967h97.567v55.501c6.717 3.277 12.575 5.939 18.309 8.888 47.777 24.67 79.876 73.69 79.876 130.207 0 40.062-16.128 76.356-42.246 102.745l0.012-0.012c-26.104 27.113-62.683 43.981-103.202 44.073h-0.017z" />
</font>
</defs>
</svg>
